<?xml version="1.0" encoding="UTF-8"?> <svg xmlns="http://www.w3.org/2000/svg" width="372" height="327" viewBox="0 0 372 327" fill="none"><path d="M310.344 226.932H292.344V203.932C292.344 196.476 286.3 190.432 278.844 190.432C271.388 190.432 265.344 196.476 265.344 203.932V237.872C265.344 246.727 272.773 253.932 281.904 253.932H310.344C317.8 253.932 323.844 247.888 323.844 240.432C323.844 232.976 317.8 226.932 310.344 226.932Z" fill="#FF0000"></path><path d="M89.9118 96.932H60.7748C54.4708 96.932 49.3428 102.06 49.3428 108.364V132.501C49.3428 138.804 54.4708 143.933 60.7748 143.933H89.9118C96.2158 143.933 101.344 138.805 101.344 132.501V108.364C101.344 102.061 96.2158 96.932 89.9118 96.932Z" fill="#FF0000"></path><path d="M164.912 96.932H135.775C129.471 96.932 124.343 102.06 124.343 108.364V132.501C124.343 138.804 129.471 143.933 135.775 143.933H164.912C171.216 143.933 176.344 138.805 176.344 132.501V108.364C176.344 102.061 171.216 96.932 164.912 96.932Z" fill="#FF0000"></path><path d="M240.912 96.932H211.775C205.471 96.932 200.343 102.06 200.343 108.364V132.501C200.343 138.804 205.471 143.933 211.775 143.933H240.912C247.216 143.933 252.344 138.805 252.344 132.501V108.364C252.344 102.061 247.216 96.932 240.912 96.932Z" fill="#FF0000"></path><path d="M89.9118 170.932H60.7748C54.4708 170.932 49.3428 176.06 49.3428 182.364V206.501C49.3428 212.804 54.4708 217.933 60.7748 217.933H89.9118C96.2158 217.933 101.344 212.805 101.344 206.501V182.364C101.344 176.061 96.2158 170.932 89.9118 170.932Z" fill="#FF0000"></path><path d="M164.912 170.932H135.775C129.471 170.932 124.343 176.06 124.343 182.364V206.501C124.343 212.804 129.471 217.933 135.775 217.933H164.912C171.216 217.933 176.344 212.805 176.344 206.501V182.364C176.344 176.061 171.216 170.932 164.912 170.932Z" fill="#FF0000"></path><path d="M300.157 148.34L300.85 20.1C300.855 14.381 298.638 9.29301 294.609 5.77301C290.983 2.60601 286.206 0.932007 280.794 0.932007H20.689C15.458 0.932007 10.554 2.55501 6.87801 5.50401C2.43801 9.06601 -0.00499234 14.25 7.65979e-06 20.1L0.203008 252.417C0.215008 264.08 9.69801 273.932 20.913 273.932H199.52C213.791 304.81 245.055 326.29 281.246 326.29C330.86 326.29 371.223 285.926 371.223 236.312C371.223 193.184 340.72 157.051 300.157 148.34ZM191.267 236.312C191.267 238.2 191.332 240.073 191.448 241.932H32.56C31.254 241.555 28.922 239.472 28.344 238.188V76.491C29.314 76.2 30.723 75.932 32.307 75.932H267.344V147.408C224.307 154.111 191.267 191.425 191.267 236.312ZM281.245 292.813C250.09 292.813 224.743 267.467 224.743 236.312C224.743 205.157 250.09 179.811 281.245 179.811C312.399 179.811 337.746 205.157 337.746 236.312C337.746 267.467 312.399 292.813 281.245 292.813Z" fill="#FF0000"></path></svg> 