<?xml version="1.0" encoding="UTF-8"?> <svg xmlns="http://www.w3.org/2000/svg" viewBox="0 0 100 100" fill-rule="evenodd"><path d="m16.672 23.105c-0.8125 5.8281 0.12891 10.344 1.3828 17.039 0.011718 0.10547 0.027343 0.21484 0.050781 0.32031l3.1914 15.289-6.4648 14.051c-0.87109 1.8906-0.042969 4.1289 1.8477 5 0.51172 0.23437 1.0469 0.34766 1.5742 0.34766 1.4258 0 2.793-0.8125 3.4258-2.1953l6.9883-15.18c0.33594-0.73438 0.42969-1.5547 0.26562-2.3477l-2.3711-11.359c0.22656 0.0625 0.45703 0.10938 0.69922 0.12891l9.7539 0.83594-0.21094 8.3633c-0.054688 2.082 1.5898 3.8125 3.6719 3.8633h0.097657c2.0391 0 3.7148-1.625 3.7656-3.6758l0.30078-11.914c0.050781-1.9922-1.4609-3.6797-3.4453-3.8516l-9.9648-0.85547c-0.62891-3.4414-0.28906-5.9648 0.67578-8.2891-6.7109-2.2227-11.523-3.9492-14.66-5.2617-0.20703-0.082031-0.39844-0.1875-0.57422-0.30859z" fill="#ff0000"></path><path d="m39.645 21.273-0.37109 1.0156-2.0664-0.75391v0.003906l-0.082031-0.035156c-0.011719 0.007813-0.023438 0.015625-0.035156 0.027344l-0.20703 0.5625-0.42187-0.15625c-0.85156 0.50391-1.8047 0.83594-2.8008 0.96484 0.60156 0.19922 1.2148 0.40234 1.8477 0.60938 0.76563 0.25 1.3867 0.78516 1.75 1.5039 0.14063 0.27344 0.23438 0.5625 0.28516 0.85547l0.058593 0.019531 0.65234-0.37891 2.082 0.76172 2.0117 0.10547-3.8672 2.1758-0.91016-1.8867c-0.023437 0.21875-0.066406 0.43359-0.13672 0.64844-0.42188 1.2891-1.6641 2.1406-3.0156 2.0742-0.26562-0.011719-0.52734-0.0625-0.78906-0.14844-0.070312-0.023438-0.13672-0.046876-0.20703-0.070313l1.8281 3.793c0.28906 0.60156 0.8125 1.0547 1.4492 1.2539 0.23828 0.074219 0.48047 0.10938 0.72266 0.10938 0.41016 0 0.81641-0.10547 1.1836-0.30859l7.1484-4.0195c0.83984-0.47266 1.2852-1.375 1.2227-2.2773l4.9492 1.8086 0.54297-1.4844 17.887 6.5312 0.30469-0.83594-27.215-9.9375 0.37109-1.0156 0.074219 0.027344 1.6758 1.0039 2.4141 0.88281 0.66016-1.8125-2.4141-0.88281-1.9297-0.3125-1.2383-0.45312 0.26953-0.74219-1.207-0.44141-0.26953 0.74219-3.0156-1.1016c-0.23828 0.34766-0.5 0.67578-0.78906 0.97656zm11.605 6.2031-0.15625 0.42188-6.0977-2.2266 0.15625-0.42188zm-11.02-5.9883 2.9883 1.0898-0.37109 1.0156-2.9883-1.0898z" fill="#ff0000"></path><path d="m29.285 21.438c0.82812 0.28516 1.6953 0.57812 2.5977 0.87891 2.9336 0.36328 5.8711-1.2344 7.0781-4.0938 1.457-3.4531-0.16016-7.4297-3.6094-8.8906-3.4531-1.457-7.4336 0.16016-8.8906 3.6133-1.3398 3.1758-0.078126 6.7969 2.8242 8.4922z" fill="#ff0000"></path><path d="m15.797 22.141c0.54297 0.25 1.1133 0.48828 1.6758 0.72266 0.003906 0 0.007813 0.003907 0.015625 0.003907 3.1133 1.3008 8.207 3.1445 16.324 5.8047 0.21094 0.070313 0.42188 0.10547 0.63281 0.11719 1.0586 0.054688 2.0664-0.60156 2.4141-1.6602 0.41406-1.2656-0.27344-2.6289-1.543-3.043-5.2734-1.7227-9.2461-3.1016-12.172-4.1875 0.10156-0.17188 0.18359-0.35547 0.23828-0.55469 1.2266 0.45312 2.6016 0.94922 4.125 1.4766-0.94531-0.94141-1.6133-2.1211-1.9414-3.3945-1.1641-0.32031-2.3281-0.64453-3.4961-0.96484-0.035156-0.007813-0.074218-0.015626-0.10937-0.019532-0.15234-0.0625-0.31641-0.10938-0.48438-0.13672-0.066406-0.011719-1.6523-0.28516-3.2969-0.46484-2.1836-0.23438-5.1758-0.55859-5.8906 1.8828-0.625 2.1367 1.2305 3.375 3.5078 4.418z" fill="#ff0000"></path><path d="m48.855 59.945h-17.641v17.785h-31.215v13.473h48.855z" fill="#ff0000"></path><path d="m98.59 80.102v-3.6914h-1.9102v-4.9531h-3.0508v6.3281h-1.3516v2.3164h-1.0156v-3.2305h-1.5703v-8.1562h-1.9961v8.1562h-1.4141v-4.1562h-3.7383v3.6602h-0.93359v-5.6055h-5.3984v5.6406h-1.5742v-4.9531h-3.0547v6.3281h-1.3477v2.3164h-1.0156v-5.6719h-4.9844v-1.7148h-3.7344v3.6602h-0.93359v-6.9766h-3.7383v10.703h-3.9375v1.0859h48.109v-1.0859z" fill="#ff0000"></path><path d="m70.051 52.754c0.23047 0.42578 0.36328 0.91797 0.36328 1.4375 0 0.85547-0.35937 1.6289-0.92969 2.1797 0.32812-0.48438 0.52344-1.0703 0.52344-1.6992 0-1.668-1.3516-3.0234-3.0234-3.0234-0.8125 0-1.5508 0.32422-2.0938 0.84375-0.41016 0.39453-0.70703 0.89844-0.84375 1.4688-0.078125-0.011719-0.15625-0.015626-0.23828-0.015626-0.98047 0-1.7734 0.79297-1.7734 1.7734s0.79297 1.7734 1.7734 1.7734c0.48047 0 0.91797-0.19141 1.2383-0.50391 0.52344 0.4375 1.1992 0.70312 1.9336 0.70312 0.71094 0 1.3672-0.25 1.8828-0.66016 0.44531 0.41016 1.0352 0.66016 1.6875 0.66016 1.3789 0 2.4961-1.1172 2.4961-2.4961 0-1.3789-1.1172-2.4961-2.4961-2.4961-0.16797 0.003906-0.33594 0.023437-0.5 0.054687z" fill="#ff0000"></path><path d="m88.785 51.883c0.375 0.43359 0.93359 0.71094 1.5508 0.71094 1.1328 0 2.0547-0.91797 2.0547-2.0547 0-1.1328-0.91797-2.0547-2.0547-2.0547-0.015626 0-0.027344 0-0.039063 0.003906 0.011719 0.12891 0.019531 0.26172 0.019531 0.39453 0 1.2344-0.60547 2.3242-1.5312 3z" fill="#ff0000"></path><path d="m81.094 52.711c0.38281 0 0.72656-0.14844 0.98828-0.39063 0.33984 0.17188 0.71875 0.27344 1.125 0.27344 0.50781 0 0.98438-0.15234 1.3789-0.41797 0.51172 0.26562 1.0898 0.41797 1.7031 0.41797 0.054688 0 0.10547-0.003906 0.15625-0.007812 1.9766-0.082032 3.5547-1.707 3.5547-3.707 0-1.9961-1.5781-3.6211-3.5547-3.7031-0.054687-0.003906-0.10547-0.007812-0.15625-0.007812-1.457 0-2.7109 0.83984-3.3203 2.0586 0.81641 0.03125 1.5312 0.45313 1.9609 1.0859-0.44531-0.42969-1.0547-0.69531-1.7227-0.69531-1.1758 0-2.1562 0.81641-2.418 1.9102 0.097657-0.019532 0.19922-0.03125 0.30469-0.03125 0.80859 0 1.4609 0.65625 1.4609 1.4609 0 0.050781-0.011719 0.097657-0.015626 0.14844-0.074218-0.73828-0.69141-1.3125-1.4453-1.3125-0.75781 0-1.3711 0.57812-1.4453 1.3125-0.003907 0.050781-0.015626 0.097656-0.015626 0.14844 0 0.80469 0.65234 1.457 1.4609 1.457z" fill="#ff0000"></path></svg> 