<?xml version="1.0" encoding="UTF-8"?> <svg xmlns="http://www.w3.org/2000/svg" viewBox="0 0 100 100" fill-rule="evenodd"><path d="m71.719 60.453c-3.9219 0.98828-7.6016 0.14062-9.8438 0.28125-2.8047 2.6484-1.4648 4.6484 1.5625 5.8281 3.5 1.2969 7.3281-0.14062 7.375-0.15625 0.79688-0.3125 1.7031 0.09375 2.0156 0.89062 0.3125 0.8125-0.078125 1.7188-0.89062 2.0312-0.15625 0.0625-2.4062 0.90625-5.2656 0.90625-1.1406 0-2.375-0.14062-3.6094-0.51562-3.1602 1.3711 1.1875 4.2031 3.3594 3.7969 2.125-0.32812 7.375-1.2031 10.219-2.3594 0.5625-0.23438 0.89062-0.8125 0.78125-1.4062-0.21875-1.3984-0.75781-3.2734-0.10938-4.625 0.23438-0.78906 1.4375-2.9375 1.1094-3.5625l-0.5625-1.625c-0.77734-1.875 0.50781-3.9648 1.3594-5.5781 0.17188-0.375 0.17188-0.79688 0-1.1562-0.67578-1.4531-2.2578-3.7812-1.875-5.4688l0.28125-2.0938c0.042969-0.80469-0.36719-1.2344-1.1562-1.3125h-11.016c-3.793 0.015625-5.2188 3.2461-3.5156 5.8125 3.8594 0.32812 7.9844-0.73438 8.0312-0.73438 2.0078-0.48438 2.75 2.4766 0.78125 3.0156-0.20312 0.0625-4.75 1.2344-9.1875 0.8125-1.3828 1.1562-1.1367 3.0312-0.35938 4.3906 2.6953-0.35547 5.6445 0.78516 9.8281-0.21875 2.0039-0.41016 2.6992 2.5664 0.6875 3.0469z" fill="#ff0000"></path><path d="m52.75 45.031c-1.5977 2.3516 0.40625 7.5273-0.90625 10.188-0.73438 1.6094-0.20312 3.3906 1.3125 4.4219 1.6133 1.0781 3.7695 1.0625 5.4531-0.21875-1.4883-2.375-1.7227-5.875 0.4375-8.0781-0.89062-1.7031-1.5-4.2188-0.1875-6.5469 0.23828-0.47656 0.58203-0.94922 1.0156-1.3906-1.9062-0.4375-5.3281-0.79688-7.125 1.625z" fill="#ff0000"></path><path d="m84 48.281c-0.92188-1.0625-2.0469-1.625-3.3594-1.6094l-0.20312 1.4844c-0.21484 0.50391 1.4102 3.1641 1.5781 3.6562 1.1562 2.1328-0.12109 4.2578-1.125 6.1406-0.41406 0.625 0.33594 1.9805 0.48438 2.6094 0.34375 1 0.3125 2.0938-0.09375 3.0781-0.13672 0.50391-1.3438 2.8438-1.1562 3.3594l0.375 2.2344c0.69922 5.6836-6.4727 5.7852-10.609 6.875 1.2344 1.3438 3.9219 3.8438 6.9531 3.8438 5.3242-0.49609 8.7383-4.0664 9.7031-9.8594 0.35938-2.0625 1.75-16.953-2.5469-21.812z" fill="#ff0000"></path><path d="m66.891 76.609c-2.0664 0.28906-4.2891-0.47656-5.9219-1.7969v18.938c0 0.21875 0.17188 0.39062 0.39062 0.39062h7.7188c0.21875 0 0.39062-0.17188 0.39062-0.39062v-17.562c-0.84375 0.15625-1.8242 0.3125-2.5781 0.42188z" fill="#ff0000"></path><path d="m65.453 41.203c0.56641 0.003906 3.5117-0.003906 4.0156 0v-34.953c0-0.21875-0.17188-0.39062-0.39062-0.39062h-7.7188c-0.21875 0-0.39062 0.17188-0.39062 0.39062v36.25c1.3359-0.84375 2.832-1.2969 4.4844-1.2969z" fill="#ff0000"></path><path d="m38.125 60.734c-0.09375-0.09375-0.23438-0.125-0.375-0.10938-2.0312 0.28125-5.9531 0.625-9.4688-0.17188-0.84375-0.1875-1.375-1.0156-1.1875-1.8594 0.20312-0.84375 1.0312-1.375 1.875-1.1875 3.1562 0.71875 6.8906 0.32812 8.3594 0.125 0.5-0.078125 1-0.046875 1.4688 0.09375 0.39062-0.73438 0.73438-1.6875 0.625-2.5781-0.078125-0.67188-0.40625-1.2812-0.98438-1.8125-4.4375 0.42188-8.9844-0.75-9.1875-0.8125-0.82812-0.20312-1.3281-1.0625-1.125-1.9062 0.21875-0.82812 1.0781-1.3281 1.9062-1.1094 0.046875 0 4.1719 1.0469 8.0312 0.73438 1.6953-2.5273 0.28906-5.8086-3.5156-5.8125h-11.016c-0.80859 0.078125-1.1875 0.51562-1.1562 1.3125l0.28125 2.0938c0.39062 1.6836-1.2148 4.0117-1.875 5.4688-0.51172 0.84766 0.69922 2.332 1.1094 3.3281 0.53125 1.0469 0.625 2.2969 0.25 3.4062-0.12109 0.58203-0.88281 1.9141-0.53125 2.5156 0.52344 1.3867 1.7227 3.5469 1.3438 5.0781l-0.375 2.2188c-0.10938 0.59375 0.21875 1.1719 0.78125 1.4062 2.8438 1.1562 8.0938 2.0312 10.219 2.3594 2.1914 0.39453 6.5117-2.4258 3.3594-3.7969-1.2344 0.375-2.4688 0.51562-3.6094 0.51562-2.8594 0-5.1094-0.84375-5.2656-0.90625-1.9023-0.77734-0.80469-3.6094 1.125-2.9219 0.046875 0.015625 3.8906 1.4531 7.375 0.15625 3.0156-1.1797 4.375-3.1719 1.5625-5.8281z" fill="#ff0000"></path><path d="m47.797 49.938c1.0391-6.2617-3.0508-7.5625-7.6719-6.5312 2.2695 2.125 2.0703 5.8633 0.82812 7.9375 1.6992 1.7422 2.0039 4.5273 1.125 6.6094-0.20312 0.5625-0.45312 1.0625-0.6875 1.4688 0.9375 0.70312 1.9531 1 2.9062 1 2.7188 0.070313 5.1055-2.6523 3.8594-5.2031-0.64062-1.4062-0.48438-3.4688-0.35938-5.2812z" fill="#ff0000"></path><path d="m28.281 75.734c-5.7539-1.3516-10.219-1.6953-8.4062-8.7344 0.046875-0.23438 0.015625-0.48438-0.078125-0.70312-0.62891-1.6523-1.957-3.9375-1.1719-5.7344 0.15234-0.625 0.89844-1.9805 0.48438-2.6094-1-1.875-2.2812-4.0195-1.125-6.1406 0.15234-0.40234 1.7227-3.125 1.5938-3.5625-0.015625-0.03125-0.21875-1.5781-0.21875-1.5781-8.6797 0.5625-6.125 21.352-5.9062 23.422 0.96484 5.793 4.3789 9.3672 9.7031 9.8594 3.0312 0 5.7188-2.5 6.9531-3.8438-0.59766-0.10547-1.1992-0.24219-1.8281-0.375z" fill="#ff0000"></path><path d="m34.016 76.672c-1.1445-0.019531-2.2773-0.28906-3.4844-0.48438v17.562c0 0.21875 0.17188 0.39062 0.39062 0.39062h7.7188c0.21875 0 0.39062-0.17188 0.39062-0.39062v-18.938c-1.3867 1.1328-3.2578 1.8516-5.0156 1.8594z" fill="#ff0000"></path><path d="m34.547 41.203c1.6523 0 3.1484 0.45312 4.4844 1.2969v-36.25c0-0.21875-0.17188-0.39062-0.39062-0.39062h-7.7188c-0.21875 0-0.39062 0.17188-0.39062 0.39062v34.953c0.48438-0.007813 3.4609 0.003906 4.0156 0z" fill="#ff0000"></path></svg> 