<?xml version="1.0" encoding="UTF-8"?> <svg xmlns="http://www.w3.org/2000/svg" viewBox="0 0 100 100" fill-rule="evenodd"><path d="m81.078 84.164c-17.145 10.621-45.035 10.621-62.18 0-5.8203-3.6055-9.7422-8.1016-11.336-12.898 2.2461 2.5039 5.0312 4.8086 8.3125 6.8398 9.4062 5.8281 21.758 8.7383 34.113 8.7383s24.707-2.9141 34.113-8.7383c3.2812-2.0312 6.0664-4.3359 8.3125-6.8398-1.5938 4.7969-5.5156 9.293-11.336 12.898zm-62.168-68.328c8.5742-5.3125 19.832-7.9648 31.09-7.9648s22.52 2.6562 31.09 7.9648c10.473 6.4883 14.512 15.473 10.805 24.039-1.8516 4.2734-5.5859 8.2422-10.805 11.477-17.145 10.621-45.035 10.621-62.18 0-5.2031-3.2227-8.9297-7.1758-10.785-11.43-3.7422-8.5781 0.29297-17.582 10.785-24.086zm-11.367 33.508c1.582 4.8125 5.5117 9.3281 11.352 12.945 17.145 10.621 45.035 10.621 62.18 0 5.8203-3.6055 9.7422-8.1016 11.336-12.895-2.2539 2.5039-5.0352 4.8125-8.3008 6.8359-9.4062 5.8281-21.762 8.7422-34.113 8.7422-12.352 0-24.707-2.9141-34.113-8.7422-3.2812-2.0352-6.0742-4.3594-8.3398-6.8867zm8.332 17.828c-3.2812-2.0352-6.0664-4.3438-8.3164-6.8438 1.5938 4.7969 5.5156 9.293 11.34 12.902 17.145 10.621 45.035 10.621 62.18 0 5.8242-3.6094 9.7461-8.1055 11.34-12.902-2.2461 2.5039-5.0312 4.8125-8.3164 6.8438-9.4062 5.8281-21.758 8.7422-34.113 8.7422s-24.711-2.918-34.113-8.7422zm46.758-47.422-17.352 9.8984 10.168 6.0742c4.4844 2.6758 13.223 2.2461 18.707-0.91797 2.3672-1.3672 3.8359-3.1211 3.8359-4.5781 0-1.3984-1.4336-2.4375-2.2852-2.9297zm-44.93 12.922 5.3164 3.0703-4.1094 2.3438c-1.3789 0.78516-1.8555 2.5391-1.0703 3.918 0.53125 0.92969 1.4961 1.4492 2.4961 1.4492 0.48047 0 0.97266-0.12109 1.4219-0.37891l7.0195-4.0039 24.539 14.168c0.45312 0.26172 0.94531 0.38281 1.4297 0.38281 0.99219 0 1.957-0.51562 2.4883-1.4375 0.79297-1.375 0.32031-3.1289-1.0508-3.9219l-21.629-12.488 5.0039-2.8555 12.949 7.7344c6.2344 3.7227 17.234 3.332 24.52-0.875 4.2617-2.4609 6.707-5.9414 6.707-9.5469 0-3.1758-1.832-5.9805-5.1562-7.9023l-14.5-8.3711c-0.88281-0.51172-1.9727-0.51172-2.8555-0.007812l-21.602 12.32-4.4375-2.6484c-1.3594-0.8125-3.125-0.36719-3.9375 0.99219s-0.36719 3.1211 0.99219 3.9375l1.6523 0.98828-5.1016 2.9102-8.2227-4.7461c-1.3711-0.79297-3.1289-0.32422-3.9219 1.0508-0.78516 1.3672-0.31641 3.125 1.0586 3.918z" fill-rule="evenodd" fill="#ff0000" stroke-width="1" stroke="#ff0000"></path></svg> 