<?xml version="1.0" encoding="UTF-8"?> <svg xmlns="http://www.w3.org/2000/svg" id="stroke" viewBox="0 0 340 340"><path d="m53.59 268.661a25.337 25.337 0 0 0 5.151-.531c2.286-.473 4.6-1.048 6.893-1.711 1.939 2.458 6.113 4.009 9.047 3.956a69.246 69.246 0 0 0 24.08-5.248 3.5 3.5 0 0 0 2.12-4.232 125.324 125.324 0 0 1 -3.713-18.895l10.948-1.825a11.958 11.958 0 0 0 7.179 9.472l-.348 11.214a3.5 3.5 0 0 0 3.39 3.607h.11a3.5 3.5 0 0 0 3.5-3.391l.088-2.838h19.989a48.144 48.144 0 0 0 3.12 14.3 11.085 11.085 0 0 0 10.383 7.163h30.36a3.289 3.289 0 0 0 3.076-4.462 60.146 60.146 0 0 1 -3.554-20.771l7.372 5.661a5.427 5.427 0 0 0 7.579-.963l1.834-2.348 16.041 12.22c-.028.1-1.653 8.643-1.544 13.252a19.934 19.934 0 0 0 10 16.81v6.4a11.523 11.523 0 0 1 -8.76 11.187l-20.88 5.159v-27.2a10.924 10.924 0 0 1 9.319-10.777 3.571 3.571 0 0 0 3.08-3.216 3.5 3.5 0 0 0 -3.972-3.728 17.951 17.951 0 0 0 -15.427 17.721v7.2h-17.322v-2.047a13.81 13.81 0 0 0 -13.811-13.811h-16.352v-1.348a15.427 15.427 0 0 0 -15.427-15.427h-16.621a15.427 15.427 0 0 0 -15.428 15.43v28.778a15.428 15.428 0 0 0 15.428 15.428h125.417a11.418 11.418 0 0 0 11.418-11.418v-11.683c1.23.221 5.192.744 5.923.744a16.536 16.536 0 0 0 16.147-13.055l1.279-6.1 26.941 19.029c1.489 1.138 4.08.181 4.768-.693l8.309-10.542a3.173 3.173 0 0 0 -.73-5.026l-48.8-34.47 2.257-2.952a8.151 8.151 0 0 0 1.573-6.765 7.975 7.975 0 0 0 -7.5-6.212l-19.914-.726-23.891-16.874-20.515-14.487 3.563-4.818a9.174 9.174 0 0 0 12.6-2.24l2.324-3.246a9.517 9.517 0 0 0 1.878-5.747 9.145 9.145 0 0 0 -3.912-7.327l-18.953-13.277a9.17 9.17 0 0 0 -12.472 1.847l-2.641 3.362a9.17 9.17 0 0 0 1.951 13.174l.672.47-3.551 4.7-4.686-3.31-20.41-14.416-24.463-17.274.759-24.435a11.317 11.317 0 0 1 2.878-7.191 26.645 26.645 0 0 1 15.761-8.529v34.137a13.811 13.811 0 0 0 13.811 13.811h11.54a13.812 13.812 0 0 0 13.813-13.811v-34.22a54.908 54.908 0 0 1 22.673 6.809 11.237 11.237 0 0 1 5.468 8.787l7.9 84.422a3.5 3.5 0 0 0 3.481 3.174q.163 0 .33-.015a3.5 3.5 0 0 0 3.159-3.811l2.619-66.922c5.343 4.749 11.337 10.335 17.522 16.573l-10.539 10.789a3.808 3.808 0 0 0 .1 4.995l6.223 5.857a3.5 3.5 0 0 0 2.4.951 182.17 182.17 0 0 0 20.992-1.478c4.582 5.564 9 11.384 13.036 17.381a27.194 27.194 0 0 1 4.457 18.464c-.976 8.036-3.208 20.015-8.3 31.318a3.264 3.264 0 0 0 1.6 4.3 3.563 3.563 0 0 0 4.89-1.662c5.376-12.035 7.729-24.649 8.757-33.111a34.2 34.2 0 0 0 -5.6-23.219c-21.512-31.935-53.146-58.882-66.13-69.267a18.222 18.222 0 0 0 -8.825-13.563 62.389 62.389 0 0 0 -26.216-7.786v-.954c0-.008 0-.016 0-.024a32.1 32.1 0 0 0 12.511-23.957l8.872-5.749a19.636 19.636 0 0 0 8.958-18.554c-5.32-51.284-44.092-51.878-49.919-51.878-4.476 0-44.6.594-49.92 51.878a19.639 19.639 0 0 0 8.958 18.554l8.872 5.75a31.968 31.968 0 0 0 1.191 7.285 32.212 32.212 0 0 0 11.318 16.668v1.015a33.813 33.813 0 0 0 -20.975 10.925 18.323 18.323 0 0 0 -4.557 10.266 70.352 70.352 0 0 0 -17.421 9.475 12.776 12.776 0 0 0 -16.507 3.585l-18.235 25a15.236 15.236 0 0 0 .929 19.006l13.959 14.966h-17.469a3.616 3.616 0 0 0 -3.612 2.848 3.5 3.5 0 0 0 3.441 4.152h3.291c-7.1 17.263-5.812 36.347-4.121 47.3-1.97.556-3.946 1.043-5.9 1.448a17.848 17.848 0 0 1 -18.023-6.671 18.423 18.423 0 0 1 -2.067-19.486c5.942-12.232 13.807-24.712 24.041-38.147a3.625 3.625 0 0 0 -.067-4.606 3.5 3.5 0 0 0 -5.39.217c-10.573 13.864-18.711 26.778-24.88 39.477a25.377 25.377 0 0 0 2.834 26.845 25.046 25.046 0 0 0 19.819 9.761zm62.986 53.189h-6.058a8.438 8.438 0 0 1 -8.428-8.428v-28.778a8.437 8.437 0 0 1 8.428-8.427h15.319v35.142s.763 9.285-9.261 10.491zm49.153 0h-23.163v-28.858h16.352a6.818 6.818 0 0 1 6.811 6.811zm-1.648-184.786a12.6 12.6 0 0 1 -12.581-12.581v-6.042l25.118 6.925a12.587 12.587 0 0 1 -12.537 11.698zm-32.128-63.241v5.143l-5.028-3.258a12.669 12.669 0 0 1 -5.8-11.958c4.656-44.891 41.4-45.6 42.948-45.6 16.369 0 27.531 12.317 24.555 26.714-1.216 5.888-4.624 11.011-10.25 11.011v-4.2a9.576 9.576 0 0 0 -9.565-9.565h-9.463a9.576 9.576 0 0 0 -9.565 9.565v4.2a17.971 17.971 0 0 0 -17.832 17.948zm7.621 17.548a25.082 25.082 0 0 1 -.621-5.53v-12.018a10.966 10.966 0 0 1 10.954-10.954h28.347a10.966 10.966 0 0 1 10.954 10.954v12.018a25.066 25.066 0 0 1 -.621 5.529c-5.917 4.023-14.15 6.065-24.506 6.065s-18.59-2.042-24.507-6.064zm4.884 10.138a60.12 60.12 0 0 0 19.623 2.926 60.124 60.124 0 0 0 19.623-2.926 25.084 25.084 0 0 1 -39.246 0zm-36.449 131.591-11.554 1.925a193.331 193.331 0 0 1 -.5-22.5h12.05zm31.707 8.29a8.042 8.042 0 0 1 -5.539 2.2h-14.239a4.934 4.934 0 0 1 -4.929-4.929v-26.137h36.308a2.859 2.859 0 0 1 2.856 2.856v8.562a8.868 8.868 0 0 1 -2.772 6.426zm15.808 31.31a4.132 4.132 0 0 1 -3.855-2.69c-3.392-8.762-3.655-18.7-.79-29.531l5.325-5.021a15.888 15.888 0 0 0 4.688-8.638l4.684 3.359a47.671 47.671 0 0 0 -5.76 14.1l-1.283-.325a3.5 3.5 0 1 0 -1.72 6.785l1.888.479a50.528 50.528 0 0 0 -.18 5.6h-1.872a3.5 3.5 0 0 0 0 7h2.509a57.793 57.793 0 0 0 2.142 8.882zm16.853 0h-3.671c-8-18.611.181-35.628 2.565-38.435l3.631 2.606c-7.926 12.929-4.913 28.149-2.525 35.829zm91.484 13.155-1.289 6.145a9.516 9.516 0 0 1 -10.567 7.406 76.577 76.577 0 0 1 -20.766-5.826 12.867 12.867 0 0 1 -7.553-11.456 38.921 38.921 0 0 1 1.213-10.988c.609-2.27 2.068-4.457 4.331-5.14 7.422-2.239 30.18 10.947 30.18 10.947a8 8 0 0 1 4.451 8.914zm-6.595-39.155a.976.976 0 0 1 .74 1.568l-2.54 3.324-7.4-5.228zm-38.092-12.171-2.8 3.827a3.5 3.5 0 0 0 5.646 4.138l2.877-3.926 6.977 4.928-2.745 3.747a3.5 3.5 0 0 0 5.646 4.138l2.818-3.846 30.259 21.373-2.579 3.477-26.256-12.725a14.988 14.988 0 0 0 -9.954-.976l-24.732-17.884 8.143-11zm-38.084-54.029 2.641-3.363a2.157 2.157 0 0 1 2.951-.437l18.959 13.278a2.135 2.135 0 0 1 .519 3.04l-2.486 3.471a2.176 2.176 0 0 1 -3.007.514l-19.115-13.386a2.062 2.062 0 0 1 -.462-3.117zm25.665 45.263-12.255 16.555-33.327-23.911s.176-4.668-.928-7.174l8.563-12.274zm-43.664-30.84-5.42 7.768-15.383-10.511 5.974-7.733zm-44.422-53.8-.422 13.557-10.579-7.472a63.844 63.844 0 0 1 11.001-6.088zm-40.169 51.003-5.54-6.226a8.2 8.2 0 0 1 -.5-10.225l18.234-25a5.736 5.736 0 0 1 7.911-1.3l43.934 31.025-10.737 13.9a1.726 1.726 0 0 1 -2.271.4 50.785 50.785 0 0 0 -26.346-7.017q-1.978 0-4.075.144c-6.401.457-15.186 2.644-20.61 4.299zm-4.5 22.6a3.635 3.635 0 0 1 3.372-2.2h11.569c-.32 8.144-.467 28.065 4.341 47.067a89.291 89.291 0 0 1 -19.128 3.8 3.492 3.492 0 0 1 -3.73-2.895c-1.699-9.898-3.494-28.998 3.576-45.772z" fill="#000000" style="fill: rgb(255, 0, 0);"></path><path d="m126.561 186.691c1.686.89 3.658-.479 4.28-1.65a3.5 3.5 0 0 0 -1.029-4.47l-24.393-17.771a11.41 11.41 0 0 0 -15.548 2l-4.22 5.161a8.272 8.272 0 0 0 8.913 13.121c11.636-3.654 31.807 3.508 31.997 3.609z" fill="#000000" style="fill: rgb(255, 0, 0);"></path><path d="m190.075 230.64.933.675a3.5 3.5 0 1 0 4.1-5.669l-.933-.675a3.5 3.5 0 1 0 -4.105 5.669z" fill="#000000" style="fill: rgb(255, 0, 0);"></path><path d="m169.747 215.923 10.994 7.959a3.5 3.5 0 0 0 4.1-5.67l-10.994-7.959a3.5 3.5 0 1 0 -4.1 5.67z" fill="#000000" style="fill: rgb(255, 0, 0);"></path><path d="m156.094 76.7a3.511 3.511 0 1 0 3.506 3.51 3.511 3.511 0 0 0 -3.506-3.51z" fill="#000000" style="fill: rgb(255, 0, 0);"></path><path d="m172.067 83.721a3.511 3.511 0 1 0 -3.511-3.511 3.511 3.511 0 0 0 3.511 3.511z" fill="#000000" style="fill: rgb(255, 0, 0);"></path></svg> 