<?xml version="1.0" encoding="UTF-8"?> <svg xmlns="http://www.w3.org/2000/svg" viewBox="0 0 100 100" fill-rule="evenodd"><path d="m49.09 8.1016-43.727 31.234c-0.078125 0.054687-0.15234 0.11328-0.22266 0.17969-0.10547 0.10938-0.19531 0.23047-0.26953 0.36328l-0.007813 0.007813c-0.023437 0.054687-0.050781 0.10547-0.070312 0.16406l-0.035157 0.089844-0.023437 0.070313-0.007813 0.03125c-0.03125 0.12109-0.046874 0.24609-0.046874 0.37891v50c0 0.36719 0.12891 0.70703 0.33984 0.97266l0.019531 0.023438c0.11328 0.13672 0.24219 0.25 0.39063 0.33594l0.011718 0.007813c0.23438 0.14062 0.50781 0.22266 0.80078 0.22266h87.5c0.29297 0 0.56641-0.082032 0.80078-0.22266l0.011719-0.007813c0.14844-0.085937 0.27734-0.19922 0.39062-0.33594l0.019532-0.023438c0.21094-0.26562 0.33984-0.60156 0.33984-0.97266v-50c0-0.13281-0.015626-0.25781-0.046876-0.37891l-0.023437-0.09375-0.023437-0.070313-0.011719-0.027344c-0.023438-0.054687-0.046875-0.10938-0.070313-0.16406l-0.007812-0.007813c-0.070313-0.13281-0.16406-0.25391-0.26953-0.36328-0.070312-0.070313-0.14453-0.12891-0.22266-0.17969l-12.672-9.0547-1.2031-4.2539c-0.23438-0.83203-1.0977-1.3125-1.9297-1.0781l-1.5195 0.42969-8.3008-13.941c-0.44531-0.74219-1.4023-0.98438-2.1445-0.54297l-6.7305 4.0078c-0.10938-0.21094-0.27344-0.40234-0.47656-0.55469l-8.75-6.25c-0.54297-0.38672-1.2734-0.38672-1.8203 0zm9.6602 59.441-7.8398 5.6016c-0.54297 0.38672-1.2734 0.38672-1.8203 0l-7.8398-5.6016-30.125 21.52h77.75zm-47.145-21.172-3.793-2.7109v43.926l30.75-21.961zm74.145 1.8867-24.312 17.367 30.75 21.961v-43.926l-6.0898 4.3516c-0.10156 0.097656-0.21875 0.17969-0.34766 0.24609zm-8.6484 2.3359c-0.54297-1.918-1.6328-5.7852-1.6328-5.7852-3.8438 0.40625-7.5547-1.6719-9.2188-5.1562 0 0-37.098 10.48-37.098 10.477 0.16406 1.5508-0.078125 3.082-0.65234 4.4609l21.504 15.359 27.102-19.359zm-16.969 2.9883c-1.4414-5.1016-6.7539-8.0703-11.852-6.6328-5.1016 1.4453-8.0703 6.7539-6.6328 11.855 1.4414 5.1016 6.7539 8.0703 11.852 6.6328 5.1016-1.4453 8.0703-6.7539 6.6328-11.855zm-3.0078 0.85156c0.97266 3.4453-1.0312 7.0234-4.4766 7.9961-3.4414 0.97266-7.0234-1.0312-7.9961-4.4727-0.97266-3.4453 1.0352-7.0234 4.4766-7.9961 3.4414-0.97266 7.0234 1.0312 7.9961 4.4727zm21.055-26.051-61.898 17.488 9.5703 6.8359c0.28906-1.0312 0.30469-2.1523-0.007812-3.2578-0.23438-0.83203 0.25-1.6953 1.082-1.9297l39.848-11.258c0.83203-0.23438 1.6953 0.25 1.9297 1.0781 0.90625 3.2109 4.2461 5.0781 7.457 4.1719 0.82812-0.23438 1.6953 0.25 1.9297 1.0781l1.7148 6.082 3.418-2.4414-5.0391-17.844zm-28.18-17.09-41.062 29.332 3.6406 2.6016 44.789-26.668-7.3672-5.2617zm33.523 24.52 4.2617 7.1523 3.2773-2.3398-7.7422-5.5273 0.19922 0.71484zm-60.742 4.9766 51.422-14.523-7.0742-11.883z" fill-rule="evenodd" fill="#ff0000"></path></svg> 