<?xml version="1.0" encoding="UTF-8"?> <svg xmlns="http://www.w3.org/2000/svg" id="stroke" viewBox="0 0 340 340"><path d="m15.365 236.669h25.883c0 4.869 2.173 34.795 34.184 34.795a34.19 34.19 0 0 0 28.507-15.336h87.713a34.175 34.175 0 0 0 59.207-3.811 34.165 34.165 0 0 0 57.463 6.2h8.342a11.146 11.146 0 0 0 11.136-11.132v-20.018a12.3 12.3 0 0 0 7.28-11.233v-91.068a3.5 3.5 0 0 0 -3.5-3.5s-162.872.052-163.156.127v-38.761h5.726a2.72 2.72 0 0 0 2.72-2.72v-1.755a9.921 9.921 0 0 0 -9.921-9.921h-13.86a9.921 9.921 0 0 0 -9.921 9.921v1.755a2.72 2.72 0 0 0 2.72 2.72h5.839v7.761c-.075 0-.148-.013-.223-.008l-47 3a22.472 22.472 0 0 0 -20.965 20.09l-3.408 31.94-48.177 5.872a23.3 23.3 0 0 0 -20.404 20.513c-.007.06 0 .118 0 .178-.1.932-.152 32.856-.152 32.856a10.454 10.454 0 0 0 -6.473 9.654v11.442a10.454 10.454 0 0 0 10.44 10.439zm204.8 13.57a12.975 12.975 0 1 1 12.974-12.975 12.975 12.975 0 0 1 -12.979 12.975zm61.4 0a12.975 12.975 0 1 1 12.974-12.975 12.975 12.975 0 0 1 -12.98 12.975zm40.462-121.673h6.057v48.765h-6.057zm-32.583 11.62h25.583v9.263h-25.589zm0 27.883h25.583v9.262h-25.589zm-13.056-39.5h6.056v48.765h-6.056zm-32.588 11.617h25.584v9.263h-25.584zm0 27.883h25.584v9.262h-25.584zm-13.056-39.5h6.056v48.765h-6.056zm-32.585 11.62h25.585v9.263h-25.587zm0 27.883h25.585v9.262h-25.587zm0 16.262h129.919v31.8a5.3 5.3 0 0 1 -3.608 5.025h-12.752a34.183 34.183 0 0 0 -60.859 1.053 34.157 34.157 0 0 0 -52.7-11.1zm-29.735-55.892c.284.074 22.735.127 22.735.127v77.32h-22.737zm-92.99 121.8a12.975 12.975 0 1 1 12.974-12.975 12.975 12.975 0 0 1 -12.976 12.972zm23.954-37.353h16.512a9.793 9.793 0 0 1 9.781 9.782v10.09h-16.356a34.126 34.126 0 0 0 -9.939-19.875zm48.839 36.242h-40.721a33.947 33.947 0 0 0 2.024-9.37h38.695zm-129.827-73.131h6.29a4.073 4.073 0 0 1 4.068 4.069v6.738a3.139 3.139 0 0 1 -3.135 3.135h-7.223zm0 20.942h7.223a10.147 10.147 0 0 0 10.135-10.135v-6.738a11.081 11.081 0 0 0 -11.073-11.069h-5.237a16.32 16.32 0 0 1 13.352-10.468l50.937-6.209a3.5 3.5 0 0 0 3.057-3.1l3.7-34.707a15.488 15.488 0 0 1 14.449-13.846l43.282-2.758v107.974h-59.207a34.086 34.086 0 0 0 -23.095-1.467c-.235-.05-47.528-.078-47.528-.078zm-6.473 17.843a3.448 3.448 0 0 1 3.443-3.443h37.8a34.223 34.223 0 0 0 -11.069 18.327h-26.736a3.447 3.447 0 0 1 -3.443-3.442z" fill="#000000" style="fill: rgb(255, 0, 0);"></path><path d="m100.7 188.516 4.943 4.325a16.566 16.566 0 0 0 10.914 4.1h21.268a3.5 3.5 0 0 0 3.5-3.5v-82.122a3.323 3.323 0 0 0 -3.67-3.5l-25.887 1.259a14.451 14.451 0 0 0 -13.752 13.65l-1.5 26.681-1.447 25.7a16.466 16.466 0 0 0 5.631 13.407zm2.617-35.406h31.008v36.832h-17.765a9.57 9.57 0 0 1 -6.3-2.368l-4.943-4.326a9.509 9.509 0 0 1 -3.253-7.742z" fill="#000000" style="fill: rgb(255, 0, 0);"></path><path d="m121.015 167.145h4.357a3.5 3.5 0 1 0 0-7h-4.357a3.5 3.5 0 0 0 0 7z" fill="#000000" style="fill: rgb(255, 0, 0);"></path><path d="m252.814 197.954a3.275 3.275 0 1 0 -4.582-.673 3.274 3.274 0 0 0 4.582.673z" fill="#000000" style="fill: rgb(255, 0, 0);"></path><path d="m312.552 197.954a3.275 3.275 0 1 0 -4.582-.673 3.274 3.274 0 0 0 4.582.673z" fill="#000000" style="fill: rgb(255, 0, 0);"></path></svg> 