<?xml version="1.0" encoding="UTF-8"?> <svg xmlns="http://www.w3.org/2000/svg" viewBox="0 0 100 100" fill-rule="evenodd"><path d="m63.605 58.035c-1.1172-2.1562-4.1992-2.1758-5.3125 0-1.3789 2.5156-3.1758 5.7383-4.7617 8.5664-3.8398 6.8984-8.4492 15.133-11.074 19.836-0.62891 1.1367-0.62891 2.5273 0.039063 3.6445 0.57031 0.98047 1.5469 1.5664 2.625 1.5664h31.637c2.4883 0.027343 3.9219-3.1719 2.6445-5.2344 0 0-15.797-28.383-15.797-28.383zm-4.625 10.859c-0.41016-2.918 3.6953-3.457 3.9219-0.52734v0.46875 6.6445c0 1.0781-0.88281 1.9609-1.9609 1.9609-1.0977 0-1.9609-0.88281-1.9609-1.9609zm1.9609 16.441c-3.7109-0.050782-3.7109-5.582 0-5.6445 3.7109 0.074219 3.707 5.582 0 5.6445z" fill="#ff0000"></path><path d="m83.324 27.184c-2-3.4297-6.4297-4.625-9.8789-2.6445-1.7656 1.0195-2.9805 2.7031-3.4297 4.625l-4.8789 2.8047c-2.8242-2.9609-6.4102-5.0391-10.387-5.9766v-5.1367c6.0859-5.8867-1.0781-15.684-8.5664-11.543-4.1602 2.2266-4.832 8.418-1.332 11.523v5.1562c-3.9609 0.94141-7.5664 3.0195-10.387 5.9766l-4.4688-2.5664c-0.13672-0.70703-0.39062-1.3906-0.76562-2.0195-3.0469-5.4844-11.758-4.4062-13.27 1.7461-1.5664 5.2266 3.8672 10.52 8.9961 8.8008l4.5664 2.625c-1.1758 3.9141-1.1758 8.0898 0 11.996l-4.6055 2.6445c-6.0039-1.9297-11.578 5.1641-8.2109 10.566 3.1445 5.668 12.082 4.2617 13.289-2.0586l4.4883-2.5859c3.7031 3.5859 9.5664 5.4688 14.426 5.7617 1.8594-3.375 4.4375-7.9492 5.957-10.742 3.25-5.7031 10.738-4.3203 12.977 1.4492 0.33203-0.11719 0.62891-0.35156 0.84375-0.66797 2.2734-3.2734 4.0781-11.582 1.7852-16.582l4.5273-2.625c6.0547 2.0742 11.652-5.0938 8.332-10.527zm-42.418 13.016c0.070312-3.7773 5.6836-3.793 5.7422 0-0.054688 3.7695-5.6797 3.7539-5.7422 0zm6.0195 16.66c-3.7969-0.074219-3.7734-5.6719 0-5.7422 3.7773 0.070312 3.793 5.668 0 5.7422zm11.621-8.0586c-3.7734-0.054687-3.7539-5.6797 0-5.7422 3.7773 0.070312 3.793 5.6836 0 5.7422z" fill="#ff0000"></path></svg> 