<?xml version="1.0" encoding="UTF-8"?> <svg xmlns="http://www.w3.org/2000/svg" viewBox="0 0 100 100" fill-rule="evenodd"><path d="m43.125 28.875c-0.79297 1.918-1.3789 3.918-1.75 5.957h-4.168c1.3438-2.5234 3.4023-4.5977 5.918-5.957zm-5.918 19.625c1.3438 2.5234 3.4023 4.5977 5.918 5.957-0.79297-1.918-1.3789-3.9141-1.75-5.957zm3.5859-6.832v-2.668h-5.0859c-0.38281 1.7578-0.38281 3.5781 0 5.332h5.168c-0.042969-0.875-0.082031-1.7891-0.082031-2.6641zm9.207-14.586c-1.418 0-3.332 2.957-4.375 7.75h8.75c-1.043-4.7891-2.957-7.75-4.375-7.75zm0 29.168c1.418 0 3.332-2.957 4.375-7.75h-8.543c0.83594 4.793 2.75 7.75 4.168 7.75zm9.125-17.25v2.668 2.668h5.168v-0.003907c0.38281-1.7539 0.38281-3.5742 0-5.332zm3.668-4.168c-1.3438-2.5234-3.4023-4.5977-5.918-5.957 0.79297 1.918 1.3789 3.918 1.75 5.957zm19.5-18.164v66.664c-0.023438 4.0195-3.2734 7.2695-7.293 7.293h-50c-4.0195-0.023438-7.2695-3.2734-7.293-7.293v-66.664c0.023438-4.0195 3.2734-7.2695 7.293-7.293h50c4.0195 0.023438 7.2695 3.2734 7.293 7.293zm-14.582 56.25h-0.003907c-0.019531-1.7188-1.4062-3.1055-3.125-3.125h-29.168 0.003907c-1.7266 0-3.125 1.3984-3.125 3.125 0 1.7227 1.3984 3.125 3.125 3.125h29.168-0.003907c1.7188-0.023438 3.1055-1.4102 3.125-3.125zm1.0391-31.25c-0.035156-1.6914-0.28906-3.375-0.75-5-0.046875-0.26172-0.12891-0.51562-0.25-0.75-1.6055-5.0586-5.2969-9.1914-10.137-11.359-4.8438-2.168-10.383-2.168-15.227 0-4.8398 2.168-8.5312 6.3008-10.137 11.359-0.12109 0.23438-0.20312 0.48828-0.25 0.75-0.46094 1.625-0.71484 3.3086-0.75 5 0.035156 1.6914 0.28906 3.3711 0.75 5 0.046875 0.25781 0.12891 0.51172 0.25 0.75 1.6055 5.0547 5.2969 9.1875 10.137 11.355 4.8438 2.168 10.383 2.168 15.227 0 4.8398-2.168 8.5312-6.3008 10.137-11.355 0.12109-0.23828 0.20312-0.49219 0.25-0.75 0.46094-1.6289 0.71484-3.3086 0.75-5zm-23.707-2.668v2.668 2.668h9.918v-2.668-2.668zm11.832 15.457c2.5156-1.3594 4.5742-3.4336 5.918-5.957h-4.168c-0.37109 2.043-0.95703 4.0391-1.75 5.957z" fill="#ff0000"></path></svg> 