<?xml version="1.0" encoding="UTF-8"?> <svg xmlns="http://www.w3.org/2000/svg" viewBox="0 0 100 100" fill-rule="evenodd"><path d="m72.918 50c-10.355 0-18.75 8.3945-18.75 18.75s8.3945 18.75 18.75 18.75 18.75-8.3945 18.75-18.75-8.3945-18.75-18.75-18.75zm10.414 20.715c0 1.1484-0.93359 2.082-2.082 2.082h-4.2852v4.2852c0 1.1484-0.93359 2.082-2.082 2.082h-3.9336c-1.1484 0-2.082-0.93359-2.082-2.082v-4.2852h-4.2852c-1.1484 0-2.082-0.93359-2.082-2.082v-3.9336c0-1.1484 0.93359-2.082 2.082-2.082h4.2852v-4.2852c0-1.1484 0.93359-2.082 2.082-2.082h3.9336c1.1484 0 2.082 0.93359 2.082 2.082v4.2852h4.2852c1.1484 0 2.082 0.93359 2.082 2.082z" fill="#ff0000"></path><path d="m79.008 19.277c-4.0508-4.3711-9.8477-6.7773-16.32-6.7773-6.1523 0-12.035 2.6094-16.195 7.0859-4.1641-4.4766-10.047-7.0859-16.195-7.0859-6.5195 0-12.352 2.4297-16.414 6.8477-4.3828 4.7617-6.3555 11.453-5.7031 19.359 2.2422 27.215 36.066 41.773 37.508 42.383 0.25781 0.10938 0.53516 0.16406 0.80859 0.16406 0.27344 0 0.54688-0.054687 0.80469-0.16406 0.32031-0.13281 2.2109-0.94531 4.9922-2.4141-1.4492-3.0078-2.2852-6.3633-2.2852-9.9258 0-12.656 10.262-22.918 22.918-22.918 3.5195 0 6.8398 0.81641 9.8203 2.2344 1.082-2.9375 1.8164-6.0586 2.0703-9.375 0.60938-7.9492-1.3984-14.664-5.7969-19.414zm-48.715 7.4336c-3.0078 0-5.3789 1.0078-6.8555 2.9102-1.5078 1.9453-1.918 4.6328-1.1641 7.5703 0.28906 1.1133-0.38281 2.25-1.4961 2.5391-0.17188 0.042969-0.34766 0.066406-0.51953 0.066406-0.92578 0-1.7734-0.625-2.0156-1.5664-1.0703-4.1523-0.37891-8.2188 1.9023-11.16 2.2617-2.918 5.8633-4.5234 10.148-4.5234 1.1484 0 2.082 0.93359 2.082 2.082 0 1.1484-0.93359 2.082-2.082 2.082z" fill="#ff0000"></path></svg> 