<?xml version="1.0" encoding="UTF-8"?> <svg xmlns="http://www.w3.org/2000/svg" viewBox="0 0 100 100" fill-rule="evenodd"><path d="m37.688 44.754c-0.11719 0.14844-0.76562 1.0117-0.86328 1.0508-0.29297 0.11719-0.72266 0.19922-0.57422 0.44922l2.2656 3.9258c0.035156 0.058593 0.089844 0.089843 0.15625 0.089843h15.168c0.066406 0 0.12109-0.03125 0.15625-0.089843l2.2656-3.9258c0.18359-0.31641-0.52344-0.34766-0.65234-0.50391l-0.78906-0.99609c-0.058593-0.074218-0.16016-0.089844-0.23828-0.039062-5.1172 3.3555-11.535 3.3555-16.652 0-0.082032-0.050782-0.18359-0.035156-0.24219 0.039062zm-1.293-24.605h8.332c0.097657 0 0.17969-0.082032 0.17969-0.17969v-11.879c0-0.10547-0.089844-0.19141-0.19922-0.17969-6.7695 0.69531-12.008 5.7969-14.262 12.008-0.79687 2.1914-1.2305 4.5156-1.3008 6.8906-0.003906 0.10156 0.078125 0.18359 0.17969 0.18359h2.6445c0.070312 0 0.12891-0.035157 0.16016-0.097657l3.0391-5.957c0.23828-0.47266 0.66016-0.78906 1.2266-0.78906zm23.906 10.492-1.957 6.3359c-0.027344 0.09375 0.023438 0.19141 0.11328 0.22266l1.7461 0.60547c0.097656 0.035156 0.19922-0.019532 0.23047-0.11719l2.3789-7.7617c0.035156-0.11719-0.050781-0.23047-0.17188-0.23047h-1.9141c-0.082031 0-0.14844 0.050782-0.17187 0.125zm-2.7734-0.12109-2.1836 7.0703c-0.16797 0.55469 0.035156 1.1328 0.47266 1.4648 0.078125 0.058593 0.09375 0.16797 0.039063 0.24609-5 7.0039-14.207 7.0039-19.203 0-0.054688-0.078125-0.039063-0.1875 0.039062-0.24609 0.4375-0.33203 0.64453-0.91016 0.47266-1.4648l-2.793-9.0469c-0.039063-0.12891 0.24219-0.58594 0.35156-0.80078 0.042969-0.082032 0.13672-0.11719 0.22266-0.085938l5.6875 2.0547c0.066407 0.023437 0.13672 0.007812 0.1875-0.039063l4.5-4.418c0.52344-0.51562 1.3633-0.51172 1.8828 0l4.5 4.418c0.050781 0.050781 0.12109 0.066406 0.1875 0.039063l5.6875-2.0547c0.085937-0.03125 0.17969 0.007812 0.22266 0.085938 0.10938 0.21484 0.39062 0.67187 0.35156 0.80078zm-13.832 8.7656c0.46484 0 3.5391-0.042968 3.7383 0.035156 0.16406 0.0625 0.66016 0.55469 0.82812 0.70703 0.55078 0.5 1.3984 0.46094 1.8984-0.089844s0.46094-1.3984-0.089844-1.8984c-0.87891-0.80078-1.5078-1.4453-2.8789-1.4453h-3.4961c-0.74219 0-1.3477 0.60156-1.3477 1.3477 0.003906 0.74219 0.60547 1.3438 1.3477 1.3438zm-10.785-6.3672-0.95703-3.1055c-0.023437-0.074219-0.089844-0.12891-0.17188-0.12891h-1.9141c-0.12109 0-0.20703 0.11719-0.17188 0.23047l2.3789 7.7617c0.03125 0.097657 0.13281 0.14844 0.23047 0.11719l1.7461-0.60547c0.089844-0.03125 0.14062-0.12891 0.11328-0.22266zm14.691-16.852v3.9023c0 0.097656 0.082032 0.17969 0.17969 0.17969h8.332c0.48828 0 0.96094 0.26953 1.1992 0.73437l3.0664 6.0117c0.03125 0.0625 0.089844 0.097657 0.16016 0.097657h2.6445c0.10156 0 0.18359-0.082032 0.17969-0.18359-0.13672-4.8672-1.8516-9.6445-5.0625-13.293-2.75-3.125-6.4219-5.1875-10.5-5.6055-0.10547-0.011718-0.19922 0.070313-0.19922 0.17969l-0.003906 7.9766zm38.57 32.062c0.52344-0.19141 1.1055 0.078125 1.2969 0.60156l0.83594 2.2773c0.19141 0.52344-0.078126 1.1055-0.60156 1.2969l-17.422 6.3945c-0.80469 0.29688-1.3359 0.98047-1.4258 1.832l-0.15234 1.4766c-0.14062 1.3789-1 2.4844-2.3008 2.9609l-7.125 2.6133c-0.10547 0.039063-0.14844 0.16016-0.09375 0.25781 2.6289 4.5586 6.9141 7.6641 11.949 9.8633 1.1719 0.51172 1.6602 1.8945 1.0625 3.0273l-1.3398 2.543c-0.50391 0.95312-1.5977 1.3984-2.6211 1.0625-6.0703-1.9883-10.762-5.7695-14.559-10.957-0.58594-0.80078-1.582-1.0781-2.5234-0.76172l-8.1523 2.7422c-0.80469 0.26953-1.3242 0.96484-1.4219 1.8086l-1.4883 12.98c-0.12891 1.1406-1.1094 1.9805-2.2578 1.9414l-5.0508-0.18359c-1.375-0.050781-2.3555-1.3203-2.0586-2.6641l2.8398-12.863c0.17188-0.78125-0.58203-1.4453-1.3359-1.168l-3.3477 1.2266c-0.99609 0.36719-1.668 1.1758-1.8398 2.2227l-0.15234 0.93359c-0.13281 0.80078-0.64453 1.4219-1.4062 1.6992l-11.969 4.3906c-0.63672 0.23438-1.3086-0.20312-1.3555-0.87891l-0.51172-7.3828c-0.089843-1.293 0.65234-2.4453 1.8711-2.8867zm-52.719-1.0273c0.082031-0.03125 0.17578 0.003907 0.21875 0.078126l3.2891 5.6953c0.035156 0.058594 0.089843 0.089844 0.15625 0.089844h18.277c0.066407 0 0.12109-0.03125 0.15625-0.089844l3.2891-5.6953c0.042968-0.074219 0.13672-0.10938 0.21875-0.078126 4.375 1.6211 7.4883 2.5781 9.75 3.8711 0.097656 0.054688 0.12109 0.17969 0.054687 0.26562l-0.51953 0.50781-36.801 13.371c-0.10547 0.039062-0.22266-0.027344-0.23828-0.14063-0.77734-4.8438-4.4492-10.324-7.6445-13.727-0.082031-0.085938-0.058594-0.22266 0.042969-0.27734 2.2617-1.293 5.3789-2.2539 9.75-3.8711zm10.445 35.234h14.223c0.17188 0 0.24609-0.21484 0.10938-0.32031-2.3945-1.8711-4.5273-4.1016-6.4336-6.6445-0.046875-0.0625-0.125-0.085938-0.19922-0.0625l-7.2734 2.4453c-0.066407 0.023438-0.11328 0.078125-0.12109 0.14844l-0.48438 4.2344c-0.007812 0.10547 0.074219 0.19922 0.17969 0.19922zm-22.664-29.449c-2.2539 2.457-3.1875 6.3906-3.9141 14.516-0.082031 0.89453-0.14062 1.7891-0.18359 2.6875-0.007813 0.12891 0.12109 0.22266 0.24219 0.17578l11.234-4.082c0.19141-0.070313 0.097657-0.32422 0.058594-0.60547-0.62891-4.3828-4.1953-9.5273-7.1719-12.691-0.074219-0.078125-0.19531-0.078125-0.26562 0zm53.98 25.16c0.30469-3.5703 0.28906-7.1172-0.027344-10.645-0.25391-2.8359-0.53516-5.1562-0.88672-7.0859-0.019531-0.10938-0.13281-0.17578-0.23828-0.13672l-2.457 0.90234c-0.066407 0.023438-0.10938 0.082031-0.11719 0.14844l-0.10938 1.0508c-0.24609 2.4023-1.7852 4.3828-4.0547 5.2148l-3.8125 1.3984c-0.11719 0.042969-0.15625 0.19141-0.074219 0.28516 2.3516 2.6875 5.4609 4.6094 8.7656 6.0547 1.2734 0.55469 2.2148 1.5898 2.6562 2.8555 0.070313 0.18359 0.33984 0.14844 0.35547-0.042969z" fill-rule="evenodd" fill="#ff0000" stroke-width="1" stroke="#ff0000"></path></svg> 