<?xml version="1.0" encoding="UTF-8"?> <svg xmlns="http://www.w3.org/2000/svg" viewBox="0 0 100 100" fill-rule="evenodd"><path d="m37 6c-5.0078-0.019531-9.5352 2.9844-11.465 7.6055-1.9297 4.625-0.87891 9.9531 2.6562 13.5 3.5391 3.5469 8.8672 4.6094 13.496 2.6914 4.625-1.918 7.6406-6.4375 7.6328-11.445-0.003906-6.8086-5.5117-12.328-12.32-12.352zm39.102 50.148c-0.25-0.46094-0.097656-1.0391 0.34766-1.3203 0.46484-0.24609 1.043-0.09375 1.3203 0.35156l4.3516 7.5312c0.20703 0.37891 0.14844 0.85156-0.15234 1.168l-10.789 10.742c-2.4258 2.4336-2.4141 6.375 0.019531 8.8008 2.4375 2.4219 6.375 2.4141 8.8008-0.023437l14.59-14.629c1.9844-1.9883 2.3945-5.0586 1-7.5l-8.8516-15.27c-2.3281-4.2031-6.7852-6.7812-11.59-6.6992h-14.148c-2.4219-0.003906-4.7891 0.73828-6.7812 2.1211-1.5898 1.0977-2.8906 2.5625-3.7969 4.2695h0.82031-0.003907c6.2891 0.007813 11.492 4.8945 11.898 11.168s-4.125 11.789-10.359 12.609-12.035-3.3359-13.266-9.5039c-1.2266-6.168 2.5352-12.23 8.6094-13.863 1.1172-2.7695 3.0938-5.1055 5.6406-6.6602-1.1367-1.6797-2.6367-3.082-4.3906-4.1016-2.0117-1.1562-4.293-1.7656-6.6094-1.7617h-15.66c-2.6133-0.039063-5.1914 0.62891-7.4531 1.9336-2.2617 1.3086-4.1289 3.2031-5.3984 5.4883l-9.7109 16.801c-0.76172 1.3242-1.0703 2.8633-0.87891 4.3789 0.19922 1.5195 0.90234 2.9297 2 4l16.078 16.109c2.7344 2.5703 7.0117 2.5039 9.6641-0.14844s2.7148-6.9297 0.14844-9.6602l-11.84-11.84c-0.31641-0.33203-0.36328-0.83594-0.12109-1.2188l4.7617-8.2383v-0.003906c0.27734-0.44141 0.84766-0.59375 1.3086-0.35156 0.44141 0.28516 0.58984 0.85938 0.33984 1.3203l-4.3984 7.6523 11.32 11.32c1.1562 1.1523 1.9688 2.6016 2.3477 4.1875 1.0469-1.0859 2.2578-2.0039 3.5898-2.7188 2.0469-1.0938 4.332-1.6641 6.6523-1.6602h11.398c2.4922 0.003906 4.9375 0.66797 7.0898 1.9219 1.4922 0.87109 2.8125 2.0078 3.8984 3.3477 0.39453-1.1289 1.0391-2.1523 1.8828-3l10.219-10.199-4-6.8789zm-40.613 21.93c1.1094-1.5781 2.5703-2.875 4.2734-3.7891 1.7695-0.94141 3.7422-1.4336 5.75-1.4297h11.398c2.1602-0.003906 4.2852 0.57031 6.1484 1.6602 1.7969 1.0547 3.2969 2.5391 4.3711 4.3203v0.16016c-0.011719 1.8086 0.58203 3.5664 1.6797 5 0.10156 0.26172 0 9.25 0 10.051h-7v-5.7812c-0.10938-0.44531-0.51172-0.75781-0.96875-0.75781-0.46094 0-0.85938 0.3125-0.96875 0.75781v5.7305h-18v-5.7305c0.078125-0.30078 0.015625-0.62109-0.17188-0.86719-0.19141-0.25-0.48438-0.39453-0.79688-0.39453-0.30859 0-0.60156 0.14453-0.79297 0.39453-0.1875 0.24609-0.25 0.56641-0.17188 0.86719v5.7305h-7v-8.8984c0.003907-0.67187 0.058594-1.3398 0.16016-2 1.1992-1.4102 1.9219-3.1602 2.0703-5zm-8.8398 8.1719c1.6562 0.003906 3.2773-0.45703 4.6797-1.3281v9.0781h-9.1797c-0.26563 0-0.51953-0.10938-0.70703-0.30078-0.1875-0.1875-0.29297-0.44531-0.29297-0.71094v-8.6484c1.5625 1.2422 3.5039 1.918 5.5 1.9102zm44.441 7.75h8.3711c0.26562 0 0.52344-0.10938 0.71094-0.30078 0.1875-0.1875 0.29688-0.44141 0.29688-0.71094v-7.4766c-2.75 2.0703-6.5039 2.1875-9.3789 0.29688zm-19.879-46.391c4.043 0 7.6914 2.4375 9.2383 6.1719 1.5469 3.7383 0.69141 8.0391-2.168 10.898-2.8594 2.8633-7.1602 3.7188-10.898 2.168-3.7383-1.5469-6.1719-5.1914-6.1719-9.2383 0-5.5234 4.4766-10 10-10zm15-33c4.5039 0 8.5664 2.7148 10.289 6.875 1.7266 4.1602 0.77344 8.9531-2.4102 12.141-3.1836 3.1836-7.9727 4.1406-12.137 2.418-4.1641-1.7188-6.8789-5.7773-6.8828-10.281 0-6.1484 4.9844-11.133 11.129-11.133z" fill-rule="evenodd" fill="#ff0000"></path></svg> 