<?xml version="1.0" encoding="UTF-8"?> <svg xmlns="http://www.w3.org/2000/svg" viewBox="0 0 100 100" fill-rule="evenodd"><path d="m86.379 61.805-14.977-14.977c-0.046875-0.046875-0.10547-0.078125-0.16406-0.10938v-10.195l-2.9023-1.1055v14.23h2.9023v-1.1602l0.81641 0.81641v0.75391c0 0.22656-0.18359 0.40625-0.40625 0.40625h-3.7188c-0.12109 0-0.22656-0.050782-0.30078-0.13281l-5.8008-5.5391c-0.089844-0.074219-0.14844-0.1875-0.14844-0.31641v-2.2773l-0.22656-0.050781c0.31641 0.027343 0.61719-0.17188 0.6875-0.49219 0.074219-0.34766-0.14453-0.69141-0.49219-0.76562l-2.1602-0.46875v-13.23h-13.699v10.25l-0.81641-0.17578v-10.316l-12.996-13.371-13.023 12.641v29.316l-5.3242 5.3242s-0.003906 0.003906-0.003906 0.007813c-0.042969 0.042968-0.070312 0.097656-0.097656 0.14844-0.011719 0.019531-0.03125 0.039063-0.039063 0.0625-0.007812 0.019531-0.007812 0.046875-0.011719 0.066406-0.015624 0.058594-0.03125 0.11719-0.03125 0.17969v0.007812c0 0.03125 0.015626 0.058594 0.019532 0.085938 0.007812 0.050781 0.011718 0.10156 0.035156 0.15234 0.019531 0.042969 0.046875 0.074219 0.074219 0.11328 0.019531 0.03125 0.035156 0.0625 0.058593 0.089844 0.003907 0.003906 0.003907 0.003906 0.007813 0.003906 0.023437 0.019531 0.050781 0.03125 0.074219 0.050781 0.11328 0.082031 0.23828 0.13281 0.37109 0.13281h0.007812 0.007812l3.5938-0.082032v24.598c0 0.33984 0.26563 0.62109 0.60547 0.64453l40.75 2.4297h0.039063c0.042968 0 0.085937-0.003906 0.125-0.011719l22.039-4.4492c0.003906 0 0.003906-0.003906 0.007813-0.003906l0.28906-0.058594v-0.035156l-0.09375 0.019531c0.19141-0.11328 0.3125-0.32031 0.3125-0.55078v-21.547h4.1562c0.26172 0 0.49609-0.15625 0.59375-0.39844 0.10156-0.24219 0.042969-0.51953-0.14062-0.70312zm-30.203-27.297 0.011719 2.6758v0.003906c0 0.22266-0.18359 0.40625-0.41016 0.40234l-2.2383-0.019532v-0.007812-3.0586h2.6328 0.003906zm-3.9258 3.0508-2.1797-0.019532h-0.03125c-0.22656 0-0.40625-0.18359-0.40625-0.40625v-2.625h2.6211v3.0508zm3.9102-6.9609 0.011719 2.625h-2.6328v-3.0312h2.2148c0.22266 0 0.40625 0.18359 0.40625 0.40625zm-6.5312 0c0-0.22656 0.18359-0.40625 0.40625-0.40625h2.2148v3.0312h-2.6211zm9.7227 31.02-20.152-20.734c-0.24609-0.25391-0.65625-0.26172-0.91016-0.011718l-20.309 19.711-2.3125 0.050781 23.133-23.133 23.355 24.117zm-25.043-29.594h0.003906 2.5938v2.9844 0.003907l-2.1992 0.019531c-0.22266 0-0.40625-0.17969-0.41016-0.40234l0.011719-2.6094zm3.8867 0.003906h2.582v2.5508c0 0.22656-0.18359 0.40625-0.40625 0.40625h-0.03125l-2.1445 0.019531v-2.9805zm2.1758-4.3047c0.22656 0 0.40625 0.18359 0.40625 0.40625v2.6055h-2.582v-3.0156h2.1758zm-5.6406 0h2.1758v3.0156h-2.5938l0.011719-2.6094c0-0.22266 0.18359-0.40625 0.40625-0.40625zm-11.125 4.1406h0.003906 2.5938v2.9844 0.003906l-2.1992 0.019532c-0.22266 0-0.40625-0.17969-0.41016-0.40234l0.011719-2.6094zm3.8867 0.003907h2.582v2.5508c0 0.22656-0.18359 0.40625-0.40625 0.40625h-0.03125l-2.1445 0.019531v-2.9805zm2.582-3.8984v2.6055h-2.582v-3.0156h2.1758c0.22656 0 0.40625 0.18359 0.40625 0.40625zm-6.0469-0.40625h2.1758v3.0156h-2.5938l0.011719-2.6094c0-0.22266 0.18359-0.40625 0.40625-0.40625zm-5.0547 33.852 19.75-19.172 19.711 20.281v25.695l-15.629-0.92969v-15.723l-8.3711-0.27344-0.10547 15.492-15.355-0.91406zm20.754 19.066c0-0.30859 0.125-0.58594 0.32813-0.79297 0.20312-0.20312 0.48437-0.32812 0.79297-0.32812s0.58984 0.125 0.79297 0.32812 0.32812 0.48438 0.32812 0.79297c0 0.29688-0.11328 0.5625-0.30469 0.76562-0.007812 0.007812-0.015624 0.019531-0.027343 0.027344-0.20312 0.20312-0.48438 0.32812-0.79297 0.32812-0.29688 0-0.5625-0.11328-0.76562-0.30469-0.007813-0.007813-0.019531-0.015625-0.027344-0.027344-0.20312-0.20312-0.32812-0.48438-0.32812-0.79297zm40.75 3.4453-20.754 4.1875v-25.207h20.754zm-41.82-22.949c2.5078 0 4.5508-2.1445 4.5508-4.7773 0-2.6328-2.043-4.7773-4.5508-4.7773s-4.5508 2.1445-4.5508 4.7773c0 2.6328 2.0391 4.7773 4.5508 4.7773zm-3.1992-4.1289h2.5586v2.7734c-1.2969-0.27734-2.3125-1.3828-2.5586-2.7734zm3.8438 2.7734v-2.7734h2.5586c-0.24609 1.3906-1.2617 2.4961-2.5586 2.7734zm2.5586-4.0625h-2.5586v-2.7734c1.2969 0.27734 2.3125 1.3828 2.5586 2.7734zm-3.8438-2.7773v2.7734h-2.5586c0.24609-1.3906 1.2617-2.4961 2.5586-2.7734zm-19.699-27.086-1.5703 0.035157 15.277-15.277 15.422 15.922h-1.8945l-13.273-13.66c-0.15625-0.16016-0.41406-0.16406-0.57422-0.007813l-13.379 12.984zm30.258 0.67969-15.348-15.848 17.004 3.3789 11.871 12.469zm18.945 22.73-5.0273-4.8008v-8.2422l5.0273-0.76172zm-14.418 29.629-2.1719-0.09375v-4.9766l2.1719 0.09375zm-26.004-11.441 2.1719 0.10938v4.9766l-2.1719-0.10938zm48.129 11.223-3.6211 0.37109v-4.457l3.6055-0.1875 0.015624 4.2695zm-22.125-5.5742-2.1719-0.09375v-4.9766l2.1719 0.09375zm22.105 0.48438-3.6016 0.1875v-4.457h3.582l0.015625 4.2734zm-4.418 0.23047-3.5781 0.18359v-4.6836h3.5781zm0 5.3125-3.5781 0.36719v-4.6836l3.5781-0.18359zm-30.156 1.7266c-0.054687-0.054687-0.089843-0.13281-0.089843-0.21484 0-0.085938 0.035156-0.16016 0.089843-0.21875 0.054688-0.054688 0.12891-0.085938 0.21484-0.085938 0.085938 0 0.16016 0.035157 0.21484 0.089844s0.089844 0.13281 0.089844 0.21484c0 0.078125-0.027344 0.14844-0.074219 0.20312l-0.015625 0.011718c-0.054688 0.054688-0.13281 0.089844-0.21484 0.089844-0.078125 0-0.14844-0.027344-0.20312-0.074218zm9.4844-7.8789-2.1719-0.09375v-4.9766l2.1719 0.09375zm0 5.793-2.1719-0.09375v-4.9766l2.1719 0.09375zm-26.008-5.6758 2.1719 0.10938v4.9766l-2.1719-0.10938zm0-5.7891 2.1719 0.10938v4.9766l-2.1719-0.10938zm2.9883 5.9414 2.1719 0.10937v4.9766l-2.1719-0.10938z" fill="#ff0000"></path></svg> 