<?xml version="1.0" encoding="UTF-8"?> <svg xmlns="http://www.w3.org/2000/svg" viewBox="0 0 100 100" fill-rule="evenodd"><path d="m36.98 35.418c0 3.1641-2.5664 5.7266-5.7305 5.7266s-5.7305-2.5625-5.7305-5.7266c0-3.1641 2.5664-5.7305 5.7305-5.7305s5.7305 2.5664 5.7305 5.7305" fill="#ff0000" stroke-width="1" stroke="#ff0000"></path><path d="m93.75 66.668v-47.918c-0.007812-5.75-4.668-10.41-10.418-10.418h-66.664c-5.75 0.007813-10.41 4.668-10.418 10.418v47.918c0.007812 5.75 4.668 10.41 10.418 10.414h3.9102c2.8672 0 5.3672 1.9531 6.0625 4.7344l0.66016 2.625h-0.003906c0.56641 2.2578 2.3359 4.0117 4.5977 4.5586s4.6367-0.20703 6.1719-1.957l6.8477-7.8242v-0.003906c1.1836-1.3555 2.8984-2.1328 4.6992-2.1328h33.719c5.75-0.003906 10.41-4.6641 10.418-10.414zm-49.965-8.9023c-0.40234 0.5625-1.0078 0.94141-1.6914 1.0547-0.14062 0.023438-0.28516 0.035157-0.42578 0.035157-1.2734 0-2.3633-0.92188-2.5664-2.1797l-0.71484-4.2812c-0.58203-3.4883-3.5977-6.043-7.1328-6.043-3.5391 0-6.5547 2.5547-7.1367 6.043l-0.71484 4.2812c-0.19922 1.2617-1.293 2.1875-2.5703 2.1797-0.14453 0-0.29297-0.011719-0.4375-0.039063-1.4102-0.23828-2.3594-1.5742-2.1289-2.9844l0.71094-4.2852v0.003906c0.54297-3.2266 2.3398-6.1094 5-8.0117-3.3945-3.0156-4.5703-7.8164-2.957-12.062 1.6133-4.2422 5.6836-7.0508 10.223-7.0508 4.543 0 8.6094 2.8086 10.227 7.0508 1.6133 4.2461 0.4375 9.0469-2.957 12.062 2.6602 1.9062 4.457 4.7852 5 8.0117l0.71094 4.2812c0.11719 0.67578-0.042968 1.3711-0.4375 1.9336zm24.965-0.99609h-16.668c-1.4375 0-2.6016-1.168-2.6016-2.6055s1.1641-2.6055 2.6016-2.6055h16.668c1.4375 0 2.6055 1.168 2.6055 2.6055s-1.168 2.6055-2.6055 2.6055zm10.418-12.5h-27.086c-1.4375 0-2.6016-1.168-2.6016-2.6055s1.1641-2.6055 2.6016-2.6055h27.086c1.4375 0 2.6016 1.168 2.6016 2.6055s-1.1641 2.6055-2.6016 2.6055zm0-12.5h-27.086c-1.4375 0-2.6016-1.168-2.6016-2.6055s1.1641-2.6055 2.6016-2.6055h27.086c1.4375 0 2.6016 1.168 2.6016 2.6055s-1.1641 2.6055-2.6016 2.6055z" fill="#ff0000" stroke-width="1" stroke="#ff0000"></path></svg> 