<?xml version="1.0" encoding="UTF-8"?> <svg xmlns="http://www.w3.org/2000/svg" id="stroke" viewBox="0 0 340 340"><path d="m6.191 206.521v73.579a12.893 12.893 0 0 0 12.893 12.9h58.855a29.575 29.575 0 0 0 57.618 0h54.8a29.571 29.571 0 0 0 54.891 7.248 29.571 29.571 0 0 0 54.895-7.248h23.306a9.742 9.742 0 0 0 9.742-9.742v-25.446a13.245 13.245 0 0 0 -13.245-13.245h-5.64v-4.383a12.782 12.782 0 0 0 -12.782-12.784h-2.669l35.647-60.4a3.5 3.5 0 0 0 -1.267-4.811l-96.309-55.519a3.5 3.5 0 0 0 -4.724 1.189l-2.332 3.766-26.9-15.446 3.2-5.447a11.858 11.858 0 0 0 1.492-8.519 11.292 11.292 0 0 0 -5.425-7.408l-6.813-3.928a3.5 3.5 0 0 0 -4.725 1.191l-17.876 28.9a3.5 3.5 0 0 0 1.165 4.836l14.168 8.571c.013.008.028.013.041.021s.015.012.024.017l5.879 3.387-22.139 38.4a3.5 3.5 0 0 0 1.284 4.78l62.623 36.1-70.354 30.894a6.238 6.238 0 0 0 -3.73 5.711v10.873h-13.796v-34.043a3.5 3.5 0 0 0 -3.5-3.5h-20.322v-56.461a9.174 9.174 0 0 0 -9.174-9.174h-6.163a9.174 9.174 0 0 0 -9.174 9.174v9.879h-43.683a21.921 21.921 0 0 0 -16.352 7.321l-32.539 36.435a2.76 2.76 0 0 0 -.89 2.332zm213.58 91.845a12.064 12.064 0 1 1 12.064-12.066 12.064 12.064 0 0 1 -12.064 12.066zm51.563 0a12.064 12.064 0 1 1 12.066-12.066 12.064 12.064 0 0 1 -12.066 12.066zm55.342-131.873-26.076 44.175-19.615-11.276 26.087-44.2zm-97.421 3.16 3.085-5.227a3.5 3.5 0 1 0 -6.028-3.558l-3.126 5.3-36.721-21.109 13.7-23.767 20.649 11.832a3.5 3.5 0 0 0 4.716-1.194l10.836-17.5 12.948 7.465-7.078 11.992a3.5 3.5 0 1 0 6.029 3.557l7.113-12.053 45.634 26.309-26.092 44.2zm29.728 40.764 29.462 16.983h-65.838zm-110.995 41.15h171.958a6.251 6.251 0 0 1 6.245 6.245v13.561h-29.334a29.561 29.561 0 0 0 -51.605.988 29.561 29.561 0 0 0 -51.605-.988h-45.659zm-41.24 46.8a12.064 12.064 0 1 1 12.064-12.067 12.064 12.064 0 0 1 -12.064 12.066zm-6.425-46.8h40.665v19.806h-8.717a29.55 29.55 0 0 0 -49.339-2.592h-6.749l9.084-10.381a20 20 0 0 1 15.056-6.833zm-55.482-79.151a14.938 14.938 0 0 1 11.131-4.983h43.683v35.588h-22.843v-23.632a3.5 3.5 0 0 0 -3.5-3.5h-16.233a3.5 3.5 0 0 0 -2.642 1.2l-22.529 25.932h-14.398zm24.971 37.6v33.213h-32.812v-33.208zm-56.621 0h16.809v36.713a3.5 3.5 0 0 0 3.5 3.5h39.812a3.5 3.5 0 0 0 3.5-3.5v-36.708h22.843v34.564a27 27 0 0 0 -19.655 9.205l-12.964 14.815h-32.295a14.213 14.213 0 0 1 -9.522-3.654l-12.028-10.829z" fill="#000000" style="fill: rgb(255, 0, 0);"></path><path d="m5.014 29.525c.345 13.375 13.363 21.422 13.918 21.759l75.46 45.8 19.145 29.743a3.48 3.48 0 0 0 5.936-.079l6.478-10.675a10.061 10.061 0 0 0 4.4.279 7 7 0 0 0 4.608-3.378l6.026-9.93a7.473 7.473 0 0 0 -1.405-9.43l6.475-10.668c.626-1.031 1.191-4.906-2.67-5.3l-35.224-3.253-75.461-45.802c-.555-.336-13.706-8.169-25.726-2.3a3.5 3.5 0 0 0 -1.96 3.234zm94.334 47.7 35.5 21.545a.464.464 0 0 1 .156.637l-6.026 9.93a.438.438 0 0 1 -.639.156l-35.499-21.542c3.76-1.723 6.918-7.705 6.508-10.724zm-70.277-42.649 62.663 38.03c1.849 2.71.892 9.65-6.493 10.733l-62.679-38.039c-.093-.057-8.638-5.333-10.283-13.576 8.028-2.315 16.704 2.799 16.792 2.852z" fill="#000000" style="fill: rgb(255, 0, 0);"></path><path d="m146.034 114.518a10.159 10.159 0 0 0 1.536 13.288 32.467 32.467 0 0 0 23.576 5.254 2.9 2.9 0 0 0 2.241-3.484c-2.908-14.122-13.569-18.745-14.592-19.158a10.124 10.124 0 0 0 -12.761 4.1z" fill="#000000" style="fill: rgb(255, 0, 0);"></path><path d="m236.869 145.7a3.607 3.607 0 1 0 3.608 3.607 3.607 3.607 0 0 0 -3.608-3.607z" fill="#000000" style="fill: rgb(255, 0, 0);"></path><path d="m56.423 223.213h5.039a3.5 3.5 0 1 0 0-7h-5.039a3.5 3.5 0 1 0 0 7z" fill="#000000" style="fill: rgb(255, 0, 0);"></path></svg> 