<?xml version="1.0" encoding="UTF-8"?> <svg xmlns="http://www.w3.org/2000/svg" viewBox="0 0 100 100" fill-rule="evenodd"><path d="m52.184 2.6133 5.293 16.391 17.246-0.03125c1.2617 0 2.2891 1.0234 2.2891 2.2891 0 0.76172-0.37109 1.4375-0.94531 1.8555l0.003906 0.007812-13.969 10.105 5.1406 15.711 13.641-5.7852c1.1641-0.48828 2.5039 0.058594 2.9961 1.2227 0.12109 0.28906 0.17969 0.58984 0.17969 0.88672h0.007812v15.711c0 1.0234-0.66797 1.8945-1.5977 2.1914l-31.578 13.395c-0.58984 0.25-1.2266 0.23047-1.7773 0l-31.766-13.477c-0.87109-0.36719-1.4023-1.2148-1.4023-2.1094h-0.007812v-15.711c0-1.2695 1.0273-2.2969 2.2969-2.2969 0.39453 0 0.76172 0.097656 1.082 0.27344l13.441 5.7031 5.1406-15.711-13.969-10.105c-1.0273-0.74219-1.2539-2.1797-0.51172-3.2031 0.48438-0.66406 1.2617-0.99609 2.0234-0.94141l17.074 0.03125 5.2969-16.406c0.38672-1.2031 1.6758-1.8672 2.8789-1.4805 0.73438 0.23828 1.2695 0.80859 1.4844 1.4922zm28.691 78.512c1.1641-0.49219 2.5039 0.058594 2.9961 1.2227 0.49219 1.1641-0.058594 2.5039-1.2227 2.9961l-31.766 13.473c-0.58984 0.25-1.2266 0.23047-1.7773 0l-31.766-13.473c-1.1641-0.48828-1.7109-1.832-1.2227-2.9961 0.48828-1.1641 1.832-1.7109 2.9961-1.2227l30.879 13.098 30.879-13.098zm0-11.133c1.1641-0.48828 2.5039 0.058593 2.9961 1.2227 0.49219 1.1641-0.058594 2.5039-1.2227 2.9961l-31.766 13.473c-0.58984 0.25-1.2266 0.23047-1.7773 0l-31.766-13.473c-1.1641-0.49219-1.7109-1.832-1.2227-2.9961 0.48828-1.1641 1.832-1.7109 2.9961-1.2227l30.879 13.098 30.879-13.098zm-18.535-18.98-12.344-9.0078-12.344 9.0078 12.344 5.2344z" fill="#ff0000"></path></svg> 