<?xml version="1.0" encoding="UTF-8"?> <svg xmlns="http://www.w3.org/2000/svg" viewBox="0 0 100 100" fill-rule="evenodd"><path d="m72.66 56.551 8.8086-7.6914v29.102c0 5.6719-4.6016 10.27-10.27 10.27h-55.93c-5.6719 0-10.27-4.6016-10.27-10.27v-55.922c0-5.6719 4.6016-10.27 10.27-10.27h55.91c4.3398 0 8.0703 2.7109 9.5508 6.5508l-8.0898 7.0586v-3.3281c0-0.80859-0.66016-1.4688-1.4688-1.4688l-55.902-0.003906c-0.80859 0-1.4688 0.66016-1.4688 1.4688v55.91c0 0.80859 0.66016 1.4688 1.4688 1.4688h55.91c0.80859 0 1.4688-0.66016 1.4688-1.4688v-21.41zm-42.23-10.539-4.4492 3.8281c-1.2305 1.0586-1.3711 2.9102-0.30859 4.1406l13.578 15.82c0.96875 1.1289 2.2891 1.9414 3.7695 2.1406 0.26953 0.039063 0.53906 0.058594 0.80859 0.058594 1.4102 0 2.7891-0.51172 3.8594-1.4492l46.301-40.43c1.2188-1.0703 1.3516-2.9219 0.28125-4.1406l-3.8594-4.4219c-1.0703-1.2188-2.9219-1.3516-4.1406-0.28125l-41.84 36.523-9.8594-11.48c-1.0586-1.2305-2.9102-1.3711-4.1406-0.30859z" fill="#ff0000" stroke-width="1" stroke="#ff0000"></path></svg> 