<?xml version="1.0" encoding="UTF-8"?> <svg xmlns="http://www.w3.org/2000/svg" id="Layer_1" viewBox="0 0 68 68"><g id="_x35_0"><path d="m19.6 61.8 7.4 4.3c1 .6 2.3.3 3.3-.3l15.2-8.8c2.4-1.4 4.3-4.6 4.2-7.4l-.1-27.4c0-1.4-.5-2.4-1.4-3-.1 0-7.6-4.4-7.5-4.3-.4-.2-.8-.3-1.3-.3-1.6 0-2.4 1-8.3 4.2-.2-.2-.4-.4-.7-.5h-.1c.2-3.3.6 8.2-.3-15.1-.1-.1.1-.7-.9-1.3s-2.5-.6-3.5 0c-.6.3-.8.8-.8 1.3l-.6 15.1s-.1 0-.1.1c-1.6.9-1.5 2.1-1.5 2.2v3.4l-.2.1c-2.4 1.4-4.2 4.8-4.2 7.4l.1 27.4c-.1 1.3.4 2.4 1.3 2.9zm29.2-39.4.1 27.4c0 2.4-1.7 5.3-3.7 6.5l-15.3 8.7c-1.9 1.1-3.3.3-3.3-1.8 0-2 0 8.2-.1-27.4 0-2.4 1.8-5.3 3.7-6.5l15.2-8.8c2.2-1.1 3.4-.2 3.4 1.9zm-22.6-19.6c.7-.4 1.8-.4 2.5 0 .5.3.5.6 0 .9-.7.3-1.9.3-2.5-.1-.5-.2-.5-.5 0-.8zm-.5 1.7c1 .5 2.3.5 3.3 0 .1 1.7-.2-5.9.6 14.9 0 .2-.2.5-.5.7-.9.5-2.5.5-3.4 0-.4-.2-.6-.5-.5-.8zm-1.5 15c0 .6.4 1.1 1 1.5 1.2.7 3.1.7 4.4 0 .7-.4 1-.9 1-1.5 1 .8.7 1.8-.4 2.4-1.5.9-4.1.9-5.6 0-1.1-.6-1.4-1.6-.4-2.4zm-.6 2.9c.2.1.3.2.5.4 1.9 1.1 4.8 1.1 6.6 0 .2-.1.4-.2.5-.3v2c0 .5-.4.9-1 1.3-1.5.9-4.1.9-5.6 0-.7-.4-1-.9-1-1.3zm-.9 2.7c.2.6.7 1.1 1.4 1.5 1.9 1.1 4.8 1.1 6.6 0 1-.6 1.5-1.3 1.5-2.2v-3.8c0-.3-.1-.6-.2-.9l5.8-3.4 6.4 3.7-14.5 8.4c-.9.5-2 1.5-2.9 2.9l-6.6-3.8c.8-1 1.6-1.9 2.5-2.4zm-2.8 3.3 6.6 3.8c-.5 1-.9 2.4-.9 3.5 0 2.7 0-9.8.1 26.5l-6.4-3.7-.1-27.1c-.1-.9.2-1.9.7-3z" fill="#000000" style="fill: rgb(255, 0, 0);"></path><path d="m36.3 51.1 3.3-1.9c.4-.2.7-.8.7-1.3v-3.7c0-.6-.6-.9-1.1-.6l-3.3 1.9c-.4.2-.7.8-.7 1.3v3.7c0 .7.6.9 1.1.6zm0-4.9 3.3-1.9v3.6c0 .2-.2.5-.3.6l-3.3 1.9v-3.6c-.1-.2.1-.5.3-.6z" fill="#000000" style="fill: rgb(255, 0, 0);"></path><path d="m28.2 35.1v10.3c0 1.3 1 1.8 2.1 1.2l15.2-8.8c1-.6 1.7-1.8 1.7-2.9v-10.3c0-1.3-1-1.8-2.1-1.2l-15.2 8.8c-1 .6-1.7 1.8-1.7 2.9zm17.3-11c.6-.3 1-.1 1 .5v10.3c0 .8-.6 1.9-1.3 2.3l-15.3 8.8c-.6.3-1 .1-1-.5v-10.3c0-.8.6-1.9 1.3-2.3z" fill="#000000" style="fill: rgb(255, 0, 0);"></path><path d="m44.6 29.9c-.2 0-.4.2-.4.4v1.5c0 .2.2.4.4.4.2 0 .4-.2.4-.4v-1.5c0-.3-.2-.4-.4-.4z" fill="#000000" style="fill: rgb(255, 0, 0);"></path><path d="m42.3 28.8 1.9-1.1v.8c0 .2.2.4.4.4.2 0 .4-.2.4-.4v-1.5c0-.3-.3-.5-.6-.3l-2.5 1.4c-.2.1-.2.3-.1.5.1.3.3.3.5.2z" fill="#000000" style="fill: rgb(255, 0, 0);"></path><path d="m29.9 54.8 3.3-1.9c.4-.2.7-.8.7-1.3v-3.7c0-.7-.6-.9-1.1-.6l-3.4 1.9c-.4.2-.7.8-.7 1.3v3.7c.1.6.6.9 1.2.6zm0-4.9 3.3-1.9v3.6c0 .2-.2.5-.3.6l-3.3 1.9v-3.6c-.1-.2.1-.5.3-.6z" fill="#000000" style="fill: rgb(255, 0, 0);"></path><path d="m45.7 47.4-3.3 1.9c-.4.2-.7.8-.7 1.3v3.7c0 .6.5.9 1.1.6l3.3-1.9c.4-.2.7-.8.7-1.3v-3.7c0-.7-.6-.9-1.1-.6zm0 4.9-3.3 1.9v-3.6c0-.2.2-.5.4-.6l3.2-2v3.6c0 .3-.1.6-.3.7z" fill="#000000" style="fill: rgb(255, 0, 0);"></path><path d="m42.7 47.4 3.3-1.9c.4-.2.7-.8.7-1.3v-3.7c0-.7-.6-1-1.1-.6l-3.3 1.9c-.4.2-.7.8-.7 1.3v3.7c0 .7.6.9 1.1.6zm0-4.9 3.3-1.9v3.6c0 .2-.2.5-.3.6l-3.3 1.9v-3.6c-.1-.2.1-.5.3-.6z" fill="#000000" style="fill: rgb(255, 0, 0);"></path><path d="m32.8 54.8-3.3 1.9c-.4.2-.7.8-.7 1.3v3.7c0 .6.6.9 1.1.6l3.3-1.9c.4-.2.7-.8.7-1.3v-3.7c0-.6-.5-1-1.1-.6zm.1 4.9-3.3 1.9v-3.6c0-.2.2-.5.3-.6l3.3-1.9v3.6c0 .2-.2.5-.3.6z" fill="#000000" style="fill: rgb(255, 0, 0);"></path><path d="m39.2 51.1-3.3 1.9c-.4.2-.7.8-.7 1.3v3.7c0 .7.6.9 1.1.6l3.3-1.9c.4-.2.7-.8.7-1.3v-3.7c.1-.6-.5-1-1.1-.6z" fill="#000000" style="fill: rgb(255, 0, 0);"></path></g></svg> 