<?xml version="1.0" encoding="UTF-8"?> <svg xmlns="http://www.w3.org/2000/svg" viewBox="0 0 100 100" fill-rule="evenodd"><path d="m20.918 63.508h-10.918v-16.809c0-3.2266 2.0586-5.8086 5.0508-6.9453v14.426l3.9805 3.9805h10.172l-1.207 0.39844c-2.8906 0.95312-5.3555 2.6797-7.0781 4.9492zm10.859-21.227-0.15234-0.49219-1.543-5.0039h-6.0625c0.097657 0.30859 0.14844 0.62891 0.14844 0.96094v4.5312h7.6094zm-9.1914-17.43-1.1133 0.77734c-0.20312 0.15234-0.44922 0.25-0.71875 0.26562 0.5 4.6484 3.6211 9.0391 8.2227 9.6133l0.54297-0.55078 2.9453-2.9805-0.007813-2.8789c-0.003906-1.4961 0.22266-2.9141 0.66797-4.25h-10.535zm-4.3008-1.5703h1.9844l1.1602-0.80859c0.22656-0.15625 0.48828-0.23438 0.74609-0.23438h12.176c0.53125-0.85547 1.1758-1.6641 1.9258-2.418 1.1914-1.1914 2.5195-2.1133 3.9648-2.7539-0.12109-1.7383-0.82422-3.2539-2.0898-4.5195-1.1016-1.1055-2.3945-1.7773-3.8594-2.0195v4.4062c0 1.6719-1.3672 3.043-3.043 3.043h-2.5195c-1.6719 0-3.043-1.3672-3.043-3.043v-4.4062c-1.4648 0.23828-2.7578 0.91406-3.8594 2.0195-1.4023 1.4062-2.1133 3.1172-2.1055 5.1055l0.007813 2.7188-1.7891 1.8086 0.33984 1.0977zm10.449-7.9141h2.5195c0.23438 0 0.42969-0.19141 0.42969-0.42969v-4.5078c0-0.23438-0.19141-0.42969-0.42969-0.42969h-2.5195c-0.23438 0-0.42969 0.19141-0.42969 0.42969v4.5078c0 0.23438 0.19141 0.42969 0.42969 0.42969zm8.3828 40.184 3.5547-1.1719c-1.0117-0.83203-1.9219-1.793-2.7266-2.8477h-13.883c-0.72266 0-1.3047-0.58594-1.3047-1.3047 0-0.72266 0.58594-1.3047 1.3047-1.3047h12.211c-0.67969-1.2695-1.2227-2.625-1.625-4.0195h-13.098v-7.1445c0-0.17578-0.074219-0.32422-0.21484-0.43359-0.14063-0.10547-0.30469-0.14062-0.47266-0.09375l-2.6719 0.71484c-0.32031 0.085938-0.53906 0.36719-0.53906 0.70313v14.457l2.4531 2.4531h17.012zm47.824-15.793v14.426l-3.9805 3.9805h-10.172l1.207 0.39844c2.8906 0.95312 5.3555 2.6797 7.0781 4.9492h10.918v-16.809c0-3.2266-2.0586-5.8086-5.0508-6.9453zm-16.73 2.5273h7.6094v-4.5312c0-0.33203 0.050782-0.65625 0.14844-0.96094h-6.0625l-1.6953 5.4961zm2.2617-7.3242 0.54297 0.55078c4.6016-0.57422 7.7227-4.9688 8.2227-9.6133-0.23438-0.011719-0.46875-0.089844-0.67578-0.23047l-1.1602-0.80859h-10.535c0.44531 1.332 0.67187 2.7539 0.66797 4.25l-0.007812 2.8789 2.9453 2.9805zm-4.8398-12.719h12.176c0.29688 0 0.57031 0.097656 0.78906 0.26562l1.1133 0.77734h1.9844l0.33984-1.0977-1.7891-1.8086 0.007812-2.7188c0.007813-1.9883-0.70312-3.6992-2.1055-5.1055-1.1016-1.1055-2.3945-1.7773-3.8594-2.0195v4.4062c0 1.6719-1.3672 3.043-3.043 3.043h-2.5195c-1.6719 0-3.043-1.3672-3.043-3.043v-4.4062c-1.4648 0.23828-2.7578 0.91406-3.8594 2.0195-1.2656 1.2656-1.9648 2.7812-2.0898 4.5195 1.4453 0.64062 2.7734 1.5625 3.9648 2.7539 0.75 0.75391 1.3945 1.5586 1.9258 2.418zm3.0977-6.8711h2.5195c0.23438 0 0.42969-0.19141 0.42969-0.42969v-4.5078c0-0.23438-0.19141-0.42969-0.42969-0.42969h-2.5195c-0.23438 0-0.42969 0.19141-0.42969 0.42969v4.5078c0 0.23438 0.19141 0.42969 0.42969 0.42969zm10.387 21.855c-0.16797-0.046874-0.33594-0.011718-0.47266 0.09375-0.14062 0.10547-0.21484 0.25781-0.21484 0.43359v7.1445h-13.098c-0.40234 1.3984-0.94922 2.75-1.625 4.0195h12.211c0.72266 0 1.3047 0.58594 1.3047 1.3047 0 0.72266-0.58594 1.3047-1.3047 1.3047h-13.883c-0.80469 1.0547-1.7148 2.0156-2.7266 2.8477l3.5547 1.1719h17.012l2.4531-2.4531v-14.457c0-0.33594-0.21875-0.61719-0.53906-0.70312l-2.6719-0.71484zm-38.949 20.07c0.10156 0.32812 0.15625 0.67188 0.15625 1.0273v7.7812h19.332v-7.7812c0-0.35547 0.054688-0.69922 0.15625-1.0273l-3.0703-1.0117c-2.2852-0.75391-4.5195-1.1328-6.75-1.1328 7.7031 0 12.945-7.1992 13.5-14.668-0.24219-0.007813-0.48438-0.085937-0.69531-0.23438l-1.8398-1.2812h-21.93l-1.7969 1.25c-0.20703 0.15625-0.46484 0.25391-0.74219 0.26562 0.55469 7.4688 5.7969 14.668 13.5 14.668-2.2305 0-4.4648 0.37891-6.75 1.1328zm31.008 3.7461-0.62891-0.20703v20.895l-5.0977 5.0977h-30.922l-5.0977-5.0977v-20.895l-0.62891 0.20703c-4.6484 1.5312-7.9023 5.4062-7.9023 10.301v18.66h58.176v-18.66c0-4.8945-3.2539-8.7656-7.9023-10.301zm-33.043-39.379c-2.043 2.0469-3.0742 4.5352-3.0664 7.4258l0.007813 3.9531-2.6016 2.6328 0.67578 2.1914h2.8906l1.8398-1.2812c0.22656-0.15625 0.48828-0.23438 0.74609-0.23438h22.742c0.29687 0 0.57031 0.097657 0.78906 0.26563l1.7969 1.25h2.8906l0.67578-2.1914-2.6016-2.6328 0.007812-3.9531c0.011719-2.8906-1.0234-5.3789-3.0664-7.4258-1.8945-1.8984-4.1719-2.9219-6.8008-3.0625v6.5352c0 1.7812-1.457 3.2383-3.2383 3.2383h-3.6641c-1.7812 0-3.2383-1.457-3.2383-3.2383v-6.5352c-2.6289 0.13672-4.9062 1.1641-6.8008 3.0625zm10.035 4.1016h3.6641c0.34375 0 0.625-0.28125 0.625-0.625v-6.5547c0-0.34375-0.28125-0.625-0.625-0.625h-3.6641c-0.34375 0-0.625 0.28125-0.625 0.625v6.5547c0 0.34375 0.28125 0.625 0.625 0.625zm-10.445 32.555v10.391h24.555v-10.391c0-0.25391 0.10938-0.47266 0.30859-0.62891 0.20312-0.15625 0.44141-0.20312 0.6875-0.13672l3.8867 1.0391c0.46875 0.125 0.78516 0.53516 0.78516 1.0195v21.027l-3.5664 3.5664h-28.758l-3.5664-3.5664v-21.023c0-0.48438 0.31641-0.89453 0.78516-1.0195l3.8867-1.0391c0.24609-0.066406 0.48438-0.019532 0.6875 0.13672 0.20313 0.15625 0.30859 0.375 0.30859 0.62891zm2.3477 18.141c0 0.72266 0.58594 1.3047 1.3047 1.3047h17.246c0.72266 0 1.3047-0.58594 1.3047-1.3047 0-0.72266-0.58594-1.3047-1.3047-1.3047h-17.246c-0.72266 0-1.3047 0.58594-1.3047 1.3047z" fill-rule="evenodd" fill="#ff0000"></path></svg> 