<?xml version="1.0" encoding="UTF-8"?> <svg xmlns="http://www.w3.org/2000/svg" viewBox="0 0 100 100" fill-rule="evenodd"><path d="m62.918 67.449h21.633c1.0117 0 1.8359-0.82031 1.8359-1.8359 0-1.0117-0.82031-1.8359-1.8359-1.8359h-21.633c-1.0117 0-1.8359 0.82031-1.8359 1.8359 0 1.0117 0.82031 1.8359 1.8359 1.8359z" fill="#ff0000"></path><path d="m45.441 64.895 3.8711 3.875c0.34766 0.34766 0.8125 0.53906 1.3008 0.53906s0.95312-0.19141 1.2969-0.53906l6.7109-6.7109c0.71875-0.71484 0.71875-1.8789 0-2.5938-0.71875-0.71875-1.8789-0.71875-2.5938 0l-5.4141 5.4102-2.5742-2.5742c-0.71875-0.71875-1.8789-0.71484-2.5977-0.003906-0.71875 0.71875-0.71875 1.8789-0.003906 2.5977z" fill="#ff0000"></path><path d="m62.918 52.551h21.633c1.0117 0 1.8359-0.82031 1.8359-1.8359 0-1.0117-0.82031-1.8359-1.8359-1.8359h-21.633c-1.0117 0-1.8359 0.82031-1.8359 1.8359 0 1.0117 0.82031 1.8359 1.8359 1.8359z" fill="#ff0000"></path><path d="m56.027 44.566-5.4141 5.4102-2.5742-2.5742c-0.71875-0.71875-1.8789-0.71875-2.5938 0-0.71875 0.71484-0.71875 1.8789 0 2.5938l3.8711 3.8711c0.35938 0.35937 0.82812 0.53906 1.2969 0.53906s0.9375-0.17969 1.2969-0.53906l6.7109-6.7109c0.71875-0.71484 0.71875-1.8789 0-2.5938-0.71875-0.71875-1.8789-0.71875-2.5938 0z" fill="#ff0000"></path><path d="m62.918 37.656h21.633c1.0117 0 1.8359-0.82031 1.8359-1.8359 0-1.0117-0.82031-1.8359-1.8359-1.8359h-21.633c-1.0117 0-1.8359 0.82031-1.8359 1.8359 0 1.0117 0.82031 1.8359 1.8359 1.8359z" fill="#ff0000"></path><path d="m45.441 35.102 3.8711 3.875c0.34766 0.34766 0.8125 0.53906 1.3008 0.53906s0.95312-0.19141 1.2969-0.53906l6.7109-6.7109c0.71875-0.71484 0.71875-1.8789 0-2.5938-0.71875-0.71875-1.8789-0.71875-2.5938 0l-5.4141 5.4102-2.5742-2.5742c-0.71875-0.71875-1.8789-0.71484-2.5977-0.003906-0.71875 0.71875-0.71875 1.8789-0.003906 2.5977z" fill="#ff0000"></path><path d="m62.918 22.758h21.633c1.0117 0 1.8359-0.82031 1.8359-1.8359 0-1.0117-0.82031-1.8359-1.8359-1.8359h-21.633c-1.0117 0-1.8359 0.82031-1.8359 1.8359 0 1.0117 0.82031 1.8359 1.8359 1.8359z" fill="#ff0000"></path><path d="m50.613 24.617c0.48828 0 0.95312-0.19141 1.2969-0.53906l6.7109-6.7109c0.71875-0.71484 0.71875-1.8789 0-2.5938-0.71875-0.71875-1.8789-0.71875-2.5938 0l-5.4141 5.4102-2.5742-2.5742c-0.71875-0.71875-1.8789-0.71484-2.5977-0.003906-0.71875 0.71875-0.71875 1.8789-0.003906 2.5977l3.8711 3.875c0.34766 0.34766 0.8125 0.53906 1.3008 0.53906z" fill="#ff0000"></path><path d="m87.312 4.0195h-43.328c-5.6211 0-10.188 4.5703-10.188 10.188v26.07c0 1.0117 0.82031 1.8359 1.8359 1.8359 1.0117 0 1.8359-0.82031 1.8359-1.8359v-26.07c0-3.5938 2.9258-6.5156 6.5195-6.5156h43.328c3.5938 0 6.5156 2.9258 6.5156 6.5156v55.141c0 3.5938-2.9258 6.5156-6.5156 6.5156h-37.328c-1.0117 0-1.8359 0.82031-1.8359 1.8359 0 1.0117 0.82031 1.8359 1.8359 1.8359h37.328c5.6172 0 10.188-4.5703 10.188-10.188l-0.003906-55.141c0-5.6172-4.5703-10.188-10.188-10.188z" fill="#ff0000"></path><path d="m31.91 67.766c3.7578-2.4609 6.25-6.6875 6.25-11.5 0-7.5859-6.168-13.75-13.75-13.75-7.5859 0-13.75 6.168-13.75 13.75 0 4.8125 2.4961 9.043 6.25 11.5-8.3984 3.0703-14.41 11.117-14.41 20.562v5.8203c0 1.0117 0.82031 1.8359 1.8359 1.8359h40.152c1.0117 0 1.8359-0.82031 1.8359-1.8359v-5.8203c0-9.4453-6.0156-17.488-14.41-20.562zm-17.582-11.504c0-5.5586 4.5234-10.082 10.082-10.082s10.082 4.5234 10.082 10.082c0 5.5586-4.5234 10.086-10.082 10.086s-10.082-4.5234-10.082-10.086zm28.324 36.051h-5.1992v-6.2031c0-1.0117-0.82031-1.8359-1.8359-1.8359-1.0117 0-1.8359 0.82031-1.8359 1.8359v6.2031h-18.742v-6.2031c0-1.0117-0.82031-1.8359-1.8359-1.8359-1.0117 0-1.8359 0.82031-1.8359 1.8359v6.2031h-5.1992v-3.9844c0-10.059 8.1836-18.242 18.242-18.242s18.242 8.1836 18.242 18.242z" fill="#ff0000"></path></svg> 