<?xml version="1.0" encoding="UTF-8"?> <svg xmlns="http://www.w3.org/2000/svg" viewBox="0 0 100 100" fill-rule="evenodd"><path d="m97.047 4.9844c-1.9062-1.8906-4.4531-2.9531-7.1406-2.9531h-71.375c-4.7031 0-8.5156 3.8281-8.5156 8.5156v77.297h-8.3594c-0.48438 0-0.96875 0.21875-1.2812 0.57812s-0.42188 0.82812-0.35938 1.2812c0.625 3.9375 5.625 8.2344 9.5469 8.2344h62c0.15625 0 0.29688 0.015625 0.4375 0.015625 5.4688 0 9.8906-4.0469 9.8906-9.0625v-9.125l4.75 2.9531c0.17188 0.10938 0.35938 0.17188 0.5625 0.17188 0.1875 0 0.35938-0.046875 0.51562-0.14062 0.34375-0.20312 0.54688-0.54688 0.54688-0.9375v-18.172c2.0625-1.9688 3.3438-4.75 3.3438-7.8125 0-5.5938-4.2656-10.203-9.7344-10.75v-18.359h17.016c0.59375 0 1.0781-0.46875 1.0781-1.0781v-13.453c0.03125-2.7344-1.0312-5.2812-2.9219-7.2031zm-10.891 74.922-4.75-2.9531c-0.03125-0.015625-0.078125-0.015625-0.09375-0.03125-0.10938-0.046875-0.21875-0.0625-0.32812-0.09375-0.046875 0-0.10938-0.046875-0.15625-0.046875-0.21875 0-0.40625 0.0625-0.57812 0.17188l-4.5625 2.9219v-14.531c1.5312 0.82812 3.2812 1.2969 5.1406 1.2969 1.9219 0 3.7344-0.51562 5.3125-1.4062v14.672zm-0.23438-24.078c0 2.8125-2.2812 5.0938-5.0781 5.0938-2.8125 0-5.0938-2.2812-5.0938-5.0938 0-2.7969 2.2812-5.0938 5.0938-5.0938 2.7969 0 5.0781 2.2969 5.0781 5.0938zm-6.1406-43.641v32.891c-5.4688 0.54688-9.75 5.1562-9.75 10.75 0 3.1562 1.375 6 3.5312 7.9688v18.031c0 0.375 0.21875 0.75 0.5625 0.9375 0.15625 0.09375 0.34375 0.14062 0.5 0.14062 0.21875 0 0.40625-0.0625 0.57812-0.17188l4.5625-2.9219v9.0938c0 3.7969-3.4531 6.8906-7.6875 6.9219-0.03125 0-0.046875-0.015625-0.078125-0.015625h-0.21875c-4.1719-0.10938-7.5469-3.1406-7.5625-6.8594v-0.03125c0-0.45312-0.28125-0.84375-0.65625-1-0.14062-0.0625-0.28125-0.09375-0.42188-0.09375 0 0 0 0.015625-0.015625 0.015625h-50.969v-77.281c0-3.5156 2.8594-6.375 6.375-6.375h65.156c-2.375 1.8438-3.9062 4.7344-3.9062 8z" fill="#ff0000" stroke-width="1" stroke="#ff0000"></path><path d="m83.781 55.828c0 1.625-1.3125 2.9531-2.9375 2.9531s-2.9531-1.3281-2.9531-2.9531 1.3281-2.9531 2.9531-2.9531 2.9375 1.3281 2.9375 2.9531z" fill="#ff0000" stroke-width="1" stroke="#ff0000"></path><path d="m47.766 8.0938c-7.5312 0-13.656 6.1406-13.656 13.672 0 3.9062 1.6562 7.4062 4.2812 9.8906l0.14062 0.14062c2.4375 2.25 5.6719 3.625 9.2344 3.625 3.5938 0 6.8594-1.3906 9.2969-3.6719 0.046875-0.046875 0.09375-0.078125 0.14062-0.14062 2.5938-2.4844 4.2344-5.9844 4.2344-9.8594 0.015625-7.5156-6.125-13.656-13.672-13.656zm8.8906 21.016c-1.0938-1.9844-2.375-3.4844-3.875-4.5-0.29688-0.20312-0.64062-0.29688-1-0.29688-0.45312 0-0.92188 0.17188-1.2812 0.46875-0.64062 0.53125-1.7031 0.85938-2.7969 0.85938-1.0781 0-2.0156-0.29688-2.5938-0.78125-0.375-0.34375-0.84375-0.51562-1.3125-0.51562-0.375 0-0.75 0.125-1.0625 0.35938-1.7812 1.2969-3.0781 2.7188-3.9219 4.2969-1.6094-1.9688-2.5625-4.5-2.5625-7.2344 0-6.3594 5.1719-11.531 11.516-11.531 6.3594 0 11.531 5.1719 11.531 11.531 0.015625 2.7969-0.98438 5.3438-2.6406 7.3438z" fill="#ff0000" stroke-width="1" stroke="#ff0000"></path><path d="m52.719 17.266v1.8281c0 2.75-2.25 5-5 5s-5-2.25-5-5v-1.8281c0-2.75 2.25-5 5-5 2.75-0.015625 5 2.2344 5 5z" fill="#ff0000" stroke-width="1" stroke="#ff0000"></path><path d="m29.953 39.234v10.438c0 0.57812-0.48438 1.0781-1.0781 1.0781h-10.438c-0.57812 0-1.0781-0.48438-1.0781-1.0781v-10.438c0-0.57812 0.48438-1.0781 1.0781-1.0781h10.438c0.57812 0 1.0781 0.48438 1.0781 1.0781z" fill="#ff0000" stroke-width="1" stroke="#ff0000"></path><path d="m65.688 40.062h-31.969c-0.59375 0-1.0781 0.48438-1.0781 1.0781s0.48438 1.0781 1.0781 1.0781h31.969c0.59375 0 1.0781-0.48438 1.0781-1.0781s-0.48438-1.0781-1.0781-1.0781z" fill="#ff0000" stroke-width="1" stroke="#ff0000"></path><path d="m65.688 46.188h-31.969c-0.59375 0-1.0781 0.48438-1.0781 1.0781s0.48438 1.0781 1.0781 1.0781h31.969c0.59375 0 1.0781-0.48438 1.0781-1.0781s-0.48438-1.0781-1.0781-1.0781z" fill="#ff0000" stroke-width="1" stroke="#ff0000"></path><path d="m29.953 55.828v10.422c0 0.59375-0.48438 1.0781-1.0781 1.0781h-10.438c-0.57812 0-1.0781-0.46875-1.0781-1.0781v-10.422c0-0.57812 0.48438-1.0781 1.0781-1.0781h10.438c0.57812 0.015625 1.0781 0.5 1.0781 1.0781z" fill="#ff0000" stroke-width="1" stroke="#ff0000"></path><path d="m65.688 56.656h-31.969c-0.59375 0-1.0781 0.48438-1.0781 1.0781s0.48438 1.0781 1.0781 1.0781h31.969c0.59375 0 1.0781-0.48438 1.0781-1.0781s-0.48438-1.0781-1.0781-1.0781z" fill="#ff0000" stroke-width="1" stroke="#ff0000"></path><path d="m65.688 62.781h-31.969c-0.59375 0-1.0781 0.48438-1.0781 1.0781s0.48438 1.0781 1.0781 1.0781h31.969c0.59375 0 1.0781-0.48438 1.0781-1.0781s-0.48438-1.0781-1.0781-1.0781z" fill="#ff0000" stroke-width="1" stroke="#ff0000"></path><path d="m29.953 72.422v10.422c0 0.59375-0.48438 1.0781-1.0781 1.0781h-10.438c-0.57812 0-1.0781-0.46875-1.0781-1.0781v-10.422c0-0.59375 0.48438-1.0781 1.0781-1.0781h10.438c0.57812 0.015625 1.0781 0.48438 1.0781 1.0781z" fill="#ff0000" stroke-width="1" stroke="#ff0000"></path><path d="m65.688 73.25h-31.969c-0.59375 0-1.0781 0.48438-1.0781 1.0781s0.48438 1.0781 1.0781 1.0781h31.969c0.59375 0 1.0781-0.48438 1.0781-1.0781s-0.48438-1.0781-1.0781-1.0781z" fill="#ff0000" stroke-width="1" stroke="#ff0000"></path><path d="m65.688 79.375h-31.969c-0.59375 0-1.0781 0.48438-1.0781 1.0781s0.48438 1.0781 1.0781 1.0781h31.969c0.59375 0 1.0781-0.48438 1.0781-1.0781s-0.48438-1.0781-1.0781-1.0781z" fill="#ff0000" stroke-width="1" stroke="#ff0000"></path></svg> 