<?xml version="1.0" encoding="UTF-8"?> <svg xmlns="http://www.w3.org/2000/svg" id="stroke" viewBox="0 0 340 340"><path d="m266.779 245.684c-.237-.038-23.622-3.526-29.229 23.152a3.5 3.5 0 0 0 2.626 4.128 33.84 33.84 0 0 0 7.119.724c4.645 0 10.7-.926 15.409-4.865 5.11-4.269 7.468-10.952 7.007-19.866a3.5 3.5 0 0 0 -2.932-3.273z" fill="#000000" style="fill: rgb(255, 0, 0);"></path><path d="m8.332 163.1a24.271 24.271 0 0 0 10.438 3.12c-1.89 6.538-4.722 18.021-4.722 28.119 0 9.146-1.562 16.325-3.072 23.267-.79 3.633-1.537 7.065-2.009 10.581-.548 4.075.258 7.478 2.4 10.116a12.258 12.258 0 0 0 5.627 3.813c.592 11.567-2.29 23.193-4.853 33.531-1.081 4.359-2.1 8.476-2.835 12.414-.973 5.209-.017 9.028 2.841 11.348 2.741 2.226 6.476 2.259 9.452 1.768 0 0-3.654 24.893 15.673 24.893l30.038-.018a3.03 3.03 0 0 0 2.017-5.275c-7.015-6.626-10.137-17.976-11.518-27.508a21.923 21.923 0 0 0 8.094 1.458 32.267 32.267 0 0 0 5.911-.579 3.5 3.5 0 0 0 2.814-2.88c.065-.407 1.538-10.028-4.883-16.992-4.709-5.107-12.171-7.293-22.177-6.494a3.5 3.5 0 0 0 -3.221 3.547 31.064 31.064 0 0 0 2.89 11.763l-2.714 1.835a3.557 3.557 0 0 1 -5.466-2.133 74.919 74.919 0 0 1 -1.657-16.969 50.654 50.654 0 0 1 6.1-23.356 71.955 71.955 0 0 0 7.888-24.377 2.682 2.682 0 0 0 -4.133-2.6l-6.863 4.52s-.48-5.55-1.012-13.383h.027c.55-.145 13.539-3.667 17.966-14.281 2.663-6.382 1.654-13.7-3-21.759a3.5 3.5 0 0 0 -4.061-1.595 27.061 27.061 0 0 0 -12.29 9.152c-.088-4.614-1.192-22.579 6.43-35.885a2.026 2.026 0 0 0 -2.681-2.781 40.713 40.713 0 0 0 -6.271 3.758c-2.62-11.118 5.616-11.653 8.065-13.224a3.106 3.106 0 0 0 1.142-2.926c-.046-.521-.915-12.442 14.981-17.108 1.039 1.11 2.454 3.6 1.443 8.5 0 0-.867 2.605.86 3.94 1.382 1.069 4.093-.074 4.093-.074a28.045 28.045 0 0 1 17.8-1.293 22.022 22.022 0 0 0 17.041-1.9c.962 3.047 1.352 7.369-2.475 10.313a3.5 3.5 0 0 0 2.982 6.169c.077-.02 7.673-1.847 10.9 3.469a6.046 6.046 0 0 1 -1.585 8.264c-.134.085-.274.167-.418.245a17.091 17.091 0 0 0 -6.347 5.736 59.656 59.656 0 0 1 -9.729 11.673 19.423 19.423 0 0 0 -3.925-3.271 3.5 3.5 0 0 0 -3.678 5.956 14.573 14.573 0 0 1 3.968 3.934 80.37 80.37 0 0 1 5.128 19.6 3.5 3.5 0 0 0 6.95-.843l-.134-11.323a15.3 15.3 0 0 1 3.489-9.908l7.537-9.151a135.356 135.356 0 0 1 11.494 12.7 29.5 29.5 0 0 1 6.473 20.279c-.325 8.555-4.52 13.756-11.4 15.628-1.416-1.332-5.468-5.2-7.376-6.212-6.992-3.7-15.573-3.551-25.507.449a3.5 3.5 0 0 0 -2.167 3.672s-.047 27.562 29.7 26.953c8.4 14.4 15.728 33.635 13.692 55.119-1.559-1.009-3.5-2.969-5.144-6.774a3.5 3.5 0 0 0 -6.639 2.1c.046.225 4.484 22.633-6.39 35.869-1.227 1.493-2.144 4.087-.076 5.545 2.27 1.6 4.793-.26 5.485-1.1 7.421-9.033 9-20.989 8.942-29.793a12.616 12.616 0 0 0 6.965 2.221 3.5 3.5 0 0 0 3.287-2.98 85.973 85.973 0 0 0 -.51-28.038l22.2-42.745 21.468 21.134-21.608 58.329a3.5 3.5 0 1 0 6.441 2.743l7.494-17.593v30.062a8.519 8.519 0 0 0 8.519 8.519s50.2-.021 50.374-.046a3.5 3.5 0 0 0 2.954-3.973 36.15 36.15 0 0 0 -9.395-18.831 19.909 19.909 0 0 0 7.824-2.453 3.5 3.5 0 0 0 1.38-4.186c-3.405-8.97-10.662-13.83-16.677-16.411 6.5-5.338 7.432-13.958 6.7-18.913a3.5 3.5 0 0 0 -2.069-2.731 3.444 3.444 0 0 0 -3.379.359c-.054.035-5.5 3.509-17.48.95a31.3 31.3 0 0 1 -14.044-6.873l2.622-6.156a3.5 3.5 0 0 0 -.765-3.866l-3.004-2.973c7.951-1.313 17.054-6.552 17.054-6.552 26.129-14.929 58.335-42.66 63.6-90.023l6.055-6.663a15.241 15.241 0 0 0 -.217-20.647l-2.384-2.515 9.636-10.1a17.529 17.529 0 0 0 4.145-16.911l-1.457-5.045 25.388-26.144c4.692 2.456 8.38-1.26 9.928-3.3l16.045-21.093a8.49 8.49 0 0 0 -.506-10.893l-3.166-3.447a8.471 8.471 0 0 0 -11.356-1.049l-21.959 16.469c-5.855 3.827-3.607 9.107-3.324 10.062l-47.054 46.381a10.882 10.882 0 0 0 -13.08 1.364l-23.93 22.324-9.412-9.665 8-7.737c4.877 2.74 10.286.027 12.31-1.754l15.843-13.933a11.164 11.164 0 0 0 1.569-15.107 55.945 55.945 0 0 0 -11.121-11 11.112 11.112 0 0 0 -14.442 1.023l-14.692 14.355a11.074 11.074 0 0 0 -3.222 9.32 24.9 24.9 0 0 0 .564 2.889l-10 9.67a8.864 8.864 0 0 0 -6.366-.855l-5.379-5.719c-1.633-1.737-6.559-5.548-12.613-.374l-6.63 6.261c-5.471 5.444-1.951 10.961-.278 12.686l5.985 6.17c0 .149-.9 3.313.691 5.6l-8.882 8.585a12.959 12.959 0 0 0 -11.1 2.6l-7.749 6.3a11.409 11.409 0 0 0 -2.489 15 34.925 34.925 0 0 0 10.723 10.623 11.557 11.557 0 0 0 6.239 1.84 11.419 11.419 0 0 0 8.6-3.912l6.122-6.965a12.99 12.99 0 0 0 2.967-11.4l7.261-7.019 8.83 9.259-29.269 27.3a20.735 20.735 0 0 0 -6.571 15.113v11.037l-4.624 3.77c.124-.894.23-1.8.293-2.721a36.474 36.474 0 0 0 -7.963-25.1 146.015 146.015 0 0 0 -14.853-16 13.154 13.154 0 0 0 2.593-16.909 14.579 14.579 0 0 0 -10.715-6.908c2.31-6.175-.1-13.084-2.326-16.69a3.5 3.5 0 0 0 -5.537-.549 12.154 12.154 0 0 1 -5.528 3.088l-.055.014c3.048-7.952.459-17.011.318-17.487a3.561 3.561 0 0 0 -3.145-2.64 3.323 3.323 0 0 0 -3.352 2.084c-.021.04-2.2 3.991-10.6 6.418a24.817 24.817 0 0 0 -10.355 5.73 12.311 12.311 0 0 0 -5.021-5.5 3.5 3.5 0 0 0 -2.4-.269c-15.514 3.816-20.762 13.772-21.755 20.884-6.3.043-14.77 2.716-17.5 12.828-3.128 11.572-12.686 20.953-12.78 21.044a3.5 3.5 0 0 0 .766 5.594zm56.227 115.881a13.5 13.5 0 0 1 3.244 8.66c-4.349.365-7.881-.527-10.516-2.666-3.456-2.805-4.906-7.272-5.512-10.354 5.836.047 10.125 1.509 12.784 4.36zm-14.815-102.148c2.27 4.9 2.668 9.192 1.178 12.79-1.939 4.681-6.695 7.521-9.96 8.985-2.662-13.522 4.561-19.498 8.782-21.775zm48.008 37.445a14.781 14.781 0 0 1 -4.879-6.016c6.592-2.121 12.162-2.022 16.587.3 4.389 2.3 6.92 6.423 8.259 9.417-8.651.908-15.357-.334-19.967-3.701zm102.586-140.869 14.692-14.359a4.2 4.2 0 0 1 5.383-.406 47.891 47.891 0 0 1 5.249 4.527 7.243 7.243 0 0 1 1.458 2.338 5.222 5.222 0 0 1 -1.214 5.4c-2.967 3.067-10.856 10.786-13.9 13.523-4.384 3.945-7.9 1.638-8.336 1.321a13.4 13.4 0 0 1 -4.509-8.945 4.044 4.044 0 0 1 1.175-3.4zm-47.667 67.239c-3.123 3.378-8.106 8.435-8.106 8.435s-2.493 1.836-6.7-1.461a27.047 27.047 0 0 1 -3.991-4.861 4.415 4.415 0 0 1 1.008-5.793l7.749-6.3a6.011 6.011 0 0 1 7.854.21 24.146 24.146 0 0 1 2.849 3.073 5.315 5.315 0 0 1 -.663 6.697zm24.276 92.432-16.947-16.68 4.732-9.113 15.772 15.3zm21.645-32.28a171.614 171.614 0 0 0 -14.47 15.543l-16.022-15.543 8.539-16.442a18.312 18.312 0 0 1 4.132-5.293l12.218-10.806a3.583 3.583 0 0 1 5.623 4.195l-2.425 5.216a3.5 3.5 0 0 0 .235 3.377l3.757 5.806a11.064 11.064 0 0 1 -1.587 13.947zm23.972-11.782a2.848 2.848 0 0 1 -3.528 1.084 127.863 127.863 0 0 1 -12.675-6.662l9.4-15.931a98.638 98.638 0 0 0 14.687 9.244zm11.694-18.2a90.973 90.973 0 0 1 -14.918-9.381l2.993-5.075a120.645 120.645 0 0 0 14.437 10.545zm61.458-123.041 4.177 3.646-37 38.106-6.82-2.68zm-36 67.17 5.667 5.979a8.212 8.212 0 0 1 .117 11.125l-13.019 14.327a8.119 8.119 0 0 1 -11.211.851 38.159 38.159 0 0 1 -7.674-8.582 8.213 8.213 0 0 1 1.031-10.116l13.293-13.662a8.176 8.176 0 0 1 11.8.077zm-82.743 6.444a12.5 12.5 0 1 1 12.5-12.5 12.511 12.511 0 0 1 -12.498 12.5zm-27.1 59.989a13.712 13.712 0 0 1 4.345-9.994l22.256-20.762 8.385 2.277a16.572 16.572 0 0 0 4.344.576 16.839 16.839 0 0 0 11.578-4.6l12.2-11.6a16.751 16.751 0 0 0 5.19-12.752l-.462-12.358 18.383-17.148a3.938 3.938 0 0 1 5.762.423l8.293 10.4a14.981 14.981 0 0 0 -7.243 4.156l-13.292 13.652a15.085 15.085 0 0 0 -3.655 15.009l-23.245 24.687a10.555 10.555 0 0 0 -14.361-.331l-12.217 10.806a25.274 25.274 0 0 0 -5.707 7.31l-10.6 20.41-9.95-9.014zm-3.62 17.313 10.234 9.271-3.9 7.5-4.2 8.09c-2.087-2.351-4.936-4.236-8.151-4.2a17.421 17.421 0 0 0 -11.591 4.963l-3.953-8.054z" fill="#000000" style="fill: rgb(255, 0, 0);"></path><path d="m83.993 231.171a3.5 3.5 0 0 0 -4.051 1.706c-.113.21-11.031 21.184 12.366 35.178a3.5 3.5 0 0 0 4.757-1.138c.306-.487 7.467-12.044 3.426-22.648-2.371-6.222-7.921-10.629-16.498-13.098zm8.77 28.771c-10.1-7.63-9.121-16.56-7.74-21.039 4.63 1.838 7.624 4.465 8.917 7.834 1.768 4.605.223 9.895-1.177 13.205z" fill="#000000" style="fill: rgb(255, 0, 0);"></path><path d="m113.546 179.664 3.431-2.831a3.5 3.5 0 0 0 -4.455-5.4l-3.431 2.832a3.471 3.471 0 0 0 -.472 4.927 3.8 3.8 0 0 0 4.927.472z" fill="#000000" style="fill: rgb(255, 0, 0);"></path></svg> 