<?xml version="1.0" encoding="UTF-8"?> <svg xmlns="http://www.w3.org/2000/svg" id="stroke" viewBox="0 0 340 340"><path d="m23.118 253.524a11.867 11.867 0 0 0 7.5-2.647l41.015-33.322 31.037 30.789c-.895 1.083-1.836 2.166-2.865 3.232a9.762 9.762 0 0 0 -2.618 8.487 9.965 9.965 0 0 0 9.828 8.324 10.074 10.074 0 0 0 1.085-.062 77.761 77.761 0 0 0 -.114 15.5 3.5 3.5 0 0 0 .878 2.022c.476.532 4.483 4.615 15.984 5.6-1.729 2.423-3.515 5.077-5.311 7.974a3.5 3.5 0 0 0 .938 4.69 72.125 72.125 0 0 0 11.406 6.256 144.865 144.865 0 0 0 -1.184 21.981 3.5 3.5 0 0 0 3.5 3.4h161.169a3.5 3.5 0 0 0 3.5-3.5v-63.711a19.354 19.354 0 0 0 9.721-4.289l.19-.157a22.876 22.876 0 0 0 6.188-27.312c-6.795-14.5-22.279-23.107-23.056-23.531a105.8 105.8 0 0 1 -12.152-8.212 14.512 14.512 0 0 0 8.409-13.144v-13.686a14.505 14.505 0 0 0 6.76-12.248v-10.308a25.46 25.46 0 0 0 -25.432-25.432h-7.738c-6.093-36.16-40.355-34.34-40.355-34.34l46.212-37.544 8.475-6.886 32.469 19.865a11.424 11.424 0 0 0 14.5-2.142l4.875-5.464a3.5 3.5 0 0 0 -.466-5.094l-58.935-45.765a3.5 3.5 0 0 0 -4.643.312l-3.606 3.67a11.379 11.379 0 0 0 -1.47 14.185l3.464 5.4-6.92 5.653-60.039 47.432s.338-8.762.44-9.933a16.083 16.083 0 0 0 12.852-14.741c.136-2.076.184-4.107.189-6.1 5.912-2.372 8.978-8.285 7.361-13.912a11.285 11.285 0 0 0 -10.618-8.177c-10.698-31.737-44.041-32.397-46.578-32.397h-.157c-34.317 0-44.155 23.722-46.913 39.282a9.607 9.607 0 0 0 -6.475 9.065v2.691a9.609 9.609 0 0 0 9.6 9.6h1.863v21.667a31.457 31.457 0 0 0 31.421 31.42c2.435 0 4.73-.112 6.923-.3v3.317a33.848 33.848 0 0 0 -13.194 11.038l-47.8 37.938a17.407 17.407 0 0 0 -20.221 1.028l-11.391 9.029a17.459 17.459 0 0 0 -6.094 9.31l-16.2-20.565a11.034 11.034 0 0 0 -15.87-1.533l-8.239 7.1a3.5 3.5 0 0 0 .526 5.673c11.083 6.45 21.566 25.09 24.994 31.619l-26.045 20.668a11.9 11.9 0 0 0 7.427 21.237zm152 37.344-15.15 15.687a10.315 10.315 0 0 1 -10.058 2.794 92.155 92.155 0 0 1 -22.547-9.166 124.041 124.041 0 0 1 16.181-20.107h31.574zm-15.885-38.368.333.037h-16.681c-3.085-1.378-5.069-3.244-5.873-5.565-1.549-4.473 1.324-9.618 1.346-9.656a3.5 3.5 0 0 0 .472-1.756v-21.85a160.917 160.917 0 0 1 5.513-20.347c2.557 14.441 7.3 31.4 16.051 47.411s2.074 7.549-1.161 11.726zm15.88 20.58h-11.461v-13.547h11.461zm15.724-15.7a4.368 4.368 0 0 1 -4.362 4.315c-4.773 0-4.362-5.224-4.362-5.224a12.564 12.564 0 0 0 -1.838-6.516 227.7 227.7 0 0 1 -31.543-91.13 33.559 33.559 0 0 1 11.418 6.868c6.231 36.593 23.619 68.395 29.236 77.96a8.559 8.559 0 0 1 1.165 4.072l.286 9.643zm-28.62-134.054c0-.02.006-.039.006-.059v-6.58c13.159-2.621 21.193-8.94 26.094-15.9v9.6a38.514 38.514 0 0 1 -4.662 15.907c-.032.025-.068.042-.1.068-3.344 2.808-9.431 6.087-15.579 6.087a7.057 7.057 0 0 1 -5.49-2.037 61.143 61.143 0 0 1 -.264-7.036c0-.025-.005-.041-.005-.057zm7.395-51.873-8.258-6.569h8.006a132.916 132.916 0 0 0 25.19-2.255c-.145 3.447-1 7.948-4.131 10.6l-10.2 1.231a14.383 14.383 0 0 1 -10.607-3.014zm.745 108.386a1.07 1.07 0 0 0 -.011-.12 53.109 53.109 0 0 1 -.836-14.781 40.985 40.985 0 0 1 22.015-6.886c-3.3 29.093 6.343 47.071 16.217 57.569s4.4 23.77-12.32 24.488a249.763 249.763 0 0 1 -25.065-60.277zm121.509 148.921h-94.392l.363-71.417v-.018c0-.034 0-.069 0-.1l-.191-6.448h79.274a18.838 18.838 0 0 0 10.921 16.059 20.005 20.005 0 0 0 4.025 1.4zm-33.933-84.986a21.1 21.1 0 0 0 6.767-8.574c6.281 2.5 9.265 6.215 10.528 8.578zm50.693-4.024a15.875 15.875 0 0 1 -4.315 18.951l-.19.157c-3.754 3.109-8.714 3.423-13.3 1.643-6.653-2.584-6.891-11.694-6.948-12.2a22.742 22.742 0 0 0 -5.276-11.97l12.415-15.426c4.335 2.845 13.252 9.536 17.614 18.845zm-27.462-47.86a7.516 7.516 0 0 1 -7.506 7.506 72.722 72.722 0 0 1 -5.641-12.379l13.147-4.207zm-26.39-50.015a7 7 0 0 1 5.473-4.657h9.245a18.453 18.453 0 0 1 18.432 18.432v10.308a7.523 7.523 0 0 1 -7.515 7.514h-16.682a172.74 172.74 0 0 0 -8.7-24.9 8.9 8.9 0 0 1 -.253-6.697zm-31.674 42.9-.675 5.138c-8.047-13.18-7.454-30.883 1.755-53.778 14.68 8.956 23.088 31.57 26.141 41.361a54.7 54.7 0 0 0 10.947 19.864 111.5 111.5 0 0 0 23.706 19.894l-11.915 14.8c-34.273-19.55-42.846-46.87-43.113-47.755-1.022-3.594-6.282-3.129-6.846.472zm-18.466-35.188a73.226 73.226 0 0 0 2.122-23.713c.427-1.156.9-2.316 1.333-3.506a1.347 1.347 0 0 1 1.918-.706l7.639 3.913a3.361 3.361 0 0 1 1.548 4.31c-4.895 11.378-19.791 46 2.336 70.458a10.579 10.579 0 0 1 2.7 6.1l1.13 12.618a.912.912 0 0 1 -.472.718.864.864 0 0 1 -.915 0c-12.463-7.344-31.976-25.889-24.464-67.923.356.061.71.12 1.069.192a3.5 3.5 0 0 0 4.056-2.465zm-7.874-33.6a4.257 4.257 0 0 1 1.759 2.538c2.577 10.419 1.089 21.067.08 26.117a46.185 46.185 0 0 0 -20.952 2.344 112.017 112.017 0 0 1 7.679-10.7 45.48 45.48 0 0 0 9.531-21.337 12.684 12.684 0 0 1 1.903 1.033zm-37.86-104.747a43.28 43.28 0 0 1 8.107.872h-.086s18.249 4.464 20.97 29.276a106.776 106.776 0 0 1 -18.527 1.6h-50.245c3.144-15.244 12.77-31.749 39.781-31.748zm-43.88 46.637a2.6 2.6 0 0 1 -2.6-2.6v-2.689a2.6 2.6 0 0 1 2.6-2.6h54.28a109.546 109.546 0 0 0 22.519-2.249 7.069 7.069 0 0 1 3.345 7.619 123.441 123.441 0 0 1 -25.8 2.517zm33.28 53.088a24.448 24.448 0 0 1 -24.421-24.42v-16.712h21.56a14.573 14.573 0 0 1 8.148 2.49c4.107 2.766 11.405 7.022 19.133 8.426v5.8a24.448 24.448 0 0 1 -24.42 24.416zm-.963 25.691a3.491 3.491 0 0 0 .4-.564 27.124 27.124 0 0 1 7.623-7.22c.325 5.211 1.326 13.076 4.3 19.787a66.194 66.194 0 0 0 -14.122-1.5q-1.4 0-2.858.059a32.919 32.919 0 0 1 4.657-10.562zm-7.3 20.25c.444.037.937.088 1.479.16a158.364 158.364 0 0 0 .889 22.4 126.805 126.805 0 0 0 -6.223 16.28c-1.525-17.946 1.341-31.175 3.854-38.84zm-9.66 92.29a14.608 14.608 0 0 0 1.167 2.527l-.033-.013a46.58 46.58 0 0 1 2.782 14.6s2.241 15.108-10.849 17.953a22.556 22.556 0 0 1 -8.6-2.573 65.449 65.449 0 0 1 1.147-18.366c2.495-2.923 8.543-12.452 8.76-12.712a3.5 3.5 0 0 0 -5.384-4.475c-.513.618-7.76 11.684-10.178 14.322a2.969 2.969 0 0 1 -5.093-1.555 2.8 2.8 0 0 1 .751-2.46 69.931 69.931 0 0 0 12.032-17.216 9.385 9.385 0 0 1 8.449-5.25h6.507s-3.535 9.122-1.459 15.222zm-1.561-58.647-11.148 9.027-10.839-10.463c0-.049 0-.1-.005-.147l22.942-18.639a111.062 111.062 0 0 0 -.951 20.222zm-7.129-33.449-1.4 11.912-15.3 12.432c-.8-1.592-5.461-6.752-5.461-6.752zm-54.722 28.4 11.391-9.029a10.436 10.436 0 0 1 13.958.87l4.538 4.626a10.454 10.454 0 0 1 -.237 14.88l-11.045 10.553a10.461 10.461 0 0 1 -14.862-.4 55.626 55.626 0 0 1 -6.02-7.6 10.39 10.39 0 0 1 2.277-13.9zm-46.922 52.271 40.47-32.121c1.535 2.106 5.7 6.743 6.019 7.032l-40.326 32.763a4.945 4.945 0 0 1 -6.66-.419 4.92 4.92 0 0 1 .5-7.255z" fill="#000000" style="fill: rgb(255, 0, 0);"></path><path d="m134.721 76.548a3.6 3.6 0 1 0 3.6 3.6 3.6 3.6 0 0 0 -3.6-3.6z" fill="#000000" style="fill: rgb(255, 0, 0);"></path><path d="m148.3 76.548a3.6 3.6 0 1 0 3.6 3.6 3.6 3.6 0 0 0 -3.6-3.6z" fill="#000000" style="fill: rgb(255, 0, 0);"></path><path d="m272.526 164.013a3.6 3.6 0 1 0 -3.6-3.6 3.6 3.6 0 0 0 3.6 3.6z" fill="#000000" style="fill: rgb(255, 0, 0);"></path><path d="m272.43 295.206a15.229 15.229 0 0 0 -16.773-2l-13.729-11.718a15.221 15.221 0 0 0 -19.2-19.142 2 2 0 0 0 -.709 3.416l6.877 5.87a5.044 5.044 0 0 1 1 6.666 4.9 4.9 0 0 1 -7.206.928l-7.037-6.006a2 2 0 0 0 -3.262 1.236 15.22 15.22 0 0 0 21.919 15.951l13.73 11.718a15.219 15.219 0 0 0 19.2 19.141 2 2 0 0 0 .709-3.416l-6.877-5.869a5.044 5.044 0 0 1 -1-6.667 4.9 4.9 0 0 1 7.206-.927l7.037 6.006a2 2 0 0 0 3.263-1.237 15.2 15.2 0 0 0 -5.148-13.95z" fill="#000000" style="fill: rgb(255, 0, 0);"></path></svg> 