<?xml version="1.0" encoding="UTF-8"?> <svg xmlns="http://www.w3.org/2000/svg" id="stroke" viewBox="0 0 340 340"><path d="m329.043 212.5h-14.743l-17.427-24.229a3.5 3.5 0 0 0 -2.842-1.456h-18.631l-14.34-22.615a14.517 14.517 0 0 0 2.312-13.48l62.575-57.436a10.037 10.037 0 0 0 .607-14.178l-1.667-1.817a10.037 10.037 0 0 0 -14.18-.607l-62.307 57.19a14.39 14.39 0 0 0 -8.341-.684l-20.347 4.378h-44.463v-1.452a11.187 11.187 0 0 0 -11.174-11.174h-3.375v-67.882a3.5 3.5 0 1 0 -7 0v67.927a11.123 11.123 0 0 0 -6.792 3.029 11.124 11.124 0 0 0 -7.674-3.074h-9.494a11.18 11.18 0 0 0 -9.868 5.947 19.764 19.764 0 0 0 -14.135-5.947h-12.747v-99a3.5 3.5 0 0 0 -7 0v99.181a23.218 23.218 0 0 0 -20.109 19.5 181.21 181.21 0 0 0 -1.454 34.909 11.075 11.075 0 0 0 -7.136 6.563c-.011.028-.02.057-.031.085-9.027-2.818-20.837-4.078-30.21 3.325-8.357 6.6-9.57 13.759-9.114 18.6a19.308 19.308 0 0 0 7.856 13.573l-17.535 21.264a3.9 3.9 0 0 0 -.8 2.228v15.117a63.867 63.867 0 0 0 1.974 15.886c2.806 10.929 10.388 30.565 29.625 39.329a23.238 23.238 0 0 0 9.713 2.053h235.249a48.581 48.581 0 0 0 48.525-48.526v-53.027a3.5 3.5 0 0 0 -3.5-3.5zm-20.643-124.2c.215 1.863 2.307 4.412 5.774 6.287l-42.014 38.564-9.48-2.886zm-16.168 105.517 13.44 18.685h-38.686a28.364 28.364 0 0 0 -7.635-18.685zm-74.6 72.582a35.681 35.681 0 0 1 -16.411-4.015l-4.163-2.167a32.787 32.787 0 0 0 12.336-14.2 16.856 16.856 0 0 1 8.92-8.245 25.863 25.863 0 0 0 7.405-4.588s7.234-5.177 7.77-13.681h33.549c-.965 5-.248 11.557 6.629 17.6a9.531 9.531 0 0 1 2.937 4.856 19.663 19.663 0 0 0 5.115 9.093s5.162 5.846 12.97 6.785v1.81a6.756 6.756 0 0 1 -6.749 6.748zm23.431 14.187a17.138 17.138 0 0 1 -34.142-1.4 57.388 57.388 0 0 0 12.5 1.4zm53.637 0a17.142 17.142 0 0 1 -34.038 0zm-71.512-136.607 18.342-3.948a7.412 7.412 0 0 1 7.294 2.526l2.028 2.443s3.442 6.1-2.033 12.9c-2.327 2.89-4.448 5.438-6.119 7.413a8.117 8.117 0 0 1 -10.522 1.659 20.545 20.545 0 0 1 -8.725-12.126 34.238 34.238 0 0 1 -.265-10.867zm-7.106.587c-.881 9.328 1.045 17.345 5.746 23.878q.843 1.17 1.758 2.218s2.673 9.662-8.567 10.673l-19.281-36.769zm-40.833 0h12.585l22.155 42.251h-19.074c-14.461-2.043-15.666-19.891-15.666-19.891zm14.3 49.251a38.054 38.054 0 0 0 10.224 18.683h-31.646a17.5 17.5 0 0 0 .693-3.871 22.379 22.379 0 0 0 -4.351-14.814zm-12.217 25.683-8.763 10.555c-1.716 1.982-11.037 11.517-28.233 7.189a30.808 30.808 0 0 1 -.569-10.393c11.915 1.163 21.2-3.517 24.517-7.351zm-26.924-83.388a4.179 4.179 0 0 1 4.174-4.174h9.493a4.179 4.179 0 0 1 4.174 4.174v26.968a4.178 4.178 0 0 1 -4.174 4.174h-9.493a4.178 4.178 0 0 1 -4.174-4.174zm7.264 60.421c3.4 2.639 4.268 6.909 4.171 11.031-.1.766-.627 3.612-3.071 4.306-12.263 3.483-22.064 1.88-28.843-.629a30.643 30.643 0 0 1 1.28-18.381s17.168-3.544 26.463 3.675zm-32.106-60.421a4.179 4.179 0 0 1 4.174-4.174h9.494a4.179 4.179 0 0 1 4.174 4.174v26.968a4.178 4.178 0 0 1 -4.174 4.174h-9.494a4.178 4.178 0 0 1 -4.174-4.174zm-5.4 91.479a10.4 10.4 0 0 0 7.616-3.341c1.542.5 3.255.984 5.083 1.413a37.688 37.688 0 0 0 1.41 16h-41.618a9.225 9.225 0 0 1 5.9-7.288 17.584 17.584 0 0 0 9.488-9.28c1.4-.305 2.832-.672 4.288-1.075a10.51 10.51 0 0 0 7.833 3.573zm-12.588-17.452c-13.714 4.531-23.8 2.944-30.557.105a48.332 48.332 0 0 1 .859-15.017 93.457 93.457 0 0 1 29.767-.393 47.755 47.755 0 0 0 -.069 15.307zm-34.773-64.484a16.174 16.174 0 0 1 15.916-13.715h17.016a12.844 12.844 0 0 1 12.829 12.831v25.7c-1.476 10.068-15.523 9.284-15.523 9.284h-17.053c-14 0-14.8-12.748-14.8-12.821a159.664 159.664 0 0 1 1.615-21.279zm-47.542 57.682c.82-2.969 2.867-5.758 6.125-8.331 7.036-5.558 16.487-4.421 23.846-2.114a46.555 46.555 0 0 0 -.762 14.817 73.556 73.556 0 0 1 -13.927 3.1c-14.091 1.638-15.282-7.469-15.282-7.472zm6.836 21.7c2.471.853 11.8 1.9 17.517.411a27.368 27.368 0 0 0 4.684 16.22h-35.918zm-17.642 30.363h33.424s.028 7.987.051 8.724h-33.345c-.082-1.274-.13-8.724-.13-8.724zm8.231 35.441a67.462 67.462 0 0 1 -6.478-16.408c-.28-1.09-.523-2.194-.736-3.309h33.052c.154 1.064.331 2.111.54 3.134a62.869 62.869 0 0 0 5.839 16.583zm26.081 19.719a16.3 16.3 0 0 1 -6.81-1.422 40.171 40.171 0 0 1 -14.494-11.3h31.735a59.408 59.408 0 0 0 12.342 12.719zm7.322-36.97a54.971 54.971 0 0 1 -1.21-18.19h69.6v4.889a64.384 64.384 0 0 0 1.378 13.3zm75.388-18.19h15.178a45.035 45.035 0 0 1 18.246 3.875s.028 4.112.052 4.849h-33.346c-.082-1.274-.13-8.724-.13-8.724zm1.021 15.72h33.052c.154 1.064.332 2.111.541 3.134a62.833 62.833 0 0 0 5.839 16.583h-32.221c-3.134-5.521-6.479-10.747-7.211-19.717zm33.294 39.436a16.312 16.312 0 0 1 -6.81-1.422 40.167 40.167 0 0 1 -14.493-11.3h31.731a59.385 59.385 0 0 0 12.342 12.719zm159.749-41.526a41.572 41.572 0 0 1 -41.525 41.526h-81.925c-3.651-1.555-23.732-11.224-29.146-37.7a54.331 54.331 0 0 1 -1.021-9.979l10.977 5.876a57.822 57.822 0 0 0 1.327 6.17 47.29 47.29 0 0 0 4.569 10.914 34.051 34.051 0 0 0 29.382 16.845h61.45a42.46 42.46 0 0 0 19.682-4.707c7.822-4.108 17.344-12.275 18.287-27.861 0-.07.006-.14.006-.211v-9.01h7.937zm0-22.954h-23.854v-26.576h23.854z" fill="#000000" style="fill: rgb(255, 0, 0);"></path><path d="m247.717 231.264c-9.189 0-16.664 6.644-16.664 14.812s7.475 14.813 16.664 14.813 16.664-6.645 16.664-14.813-7.481-14.812-16.664-14.812zm0 22.625c-5.329 0-9.664-3.505-9.664-7.813s4.335-7.812 9.664-7.812 9.664 3.5 9.664 7.812-4.335 7.813-9.664 7.813z" fill="#000000" style="fill: rgb(255, 0, 0);"></path><path d="m87.179 151.319a3.275 3.275 0 1 0 -4.582-.673 3.277 3.277 0 0 0 4.582.673z" fill="#000000" style="fill: rgb(255, 0, 0);"></path><path d="m87.179 166.278a3.275 3.275 0 1 0 -4.582-.672 3.275 3.275 0 0 0 4.582.672z" fill="#000000" style="fill: rgb(255, 0, 0);"></path></svg> 