<?xml version="1.0" encoding="UTF-8"?> <svg xmlns="http://www.w3.org/2000/svg" width="288" height="281" viewBox="0 0 288 281" fill="none"><path d="M267.749 188.076C253.154 176.347 239.766 170.645 226.819 170.645C208.09 170.645 194.605 182.559 182.396 194.764C180.992 196.169 179.292 196.824 177.047 196.824C166.759 196.825 148.66 183.941 123.253 158.531C93.3633 128.639 82.0624 109.627 89.6614 102.025C110.261 81.4321 116.692 60.7881 85.1524 21.5631C73.8614 7.51005 62.8144 0.680054 51.3804 0.680054C35.9604 0.680054 24.2384 13.0061 13.8964 23.8821C12.1084 25.7621 10.4194 27.5381 8.76335 29.1941C-2.92565 40.8821 -2.91965 66.3761 8.78035 97.3941C21.6174 131.427 46.9634 168.449 80.1504 201.641C105.815 227.304 133.74 248.044 160.908 261.969C184.627 274.127 207.634 280.641 225.691 280.641C225.693 280.641 225.695 280.641 225.698 280.641C236.998 280.641 246.177 278.176 252.239 273.163C264.553 262.982 287.473 244.124 287.32 221.724C287.236 209.71 280.653 198.451 267.749 188.076Z" fill="#FF0000"></path></svg> 