<svg xmlns="http://www.w3.org/2000/svg" fill-rule="evenodd" viewBox="0 0 100 100">
    <path d="M77.734 6.613H26.362a6.253 6.253 0 0 0-6.246 6.246v8.839h-6.242v3h6.242v10.36h-6.242v3h6.242v10.361h-6.242v3h6.242v10.36h-6.242v3h6.242v10.36h-6.242v3h6.242v9.354a6.253 6.253 0 0 0 6.246 6.246h51.373a6.253 6.253 0 0 0 6.246-6.246V12.859a6.255 6.255 0 0 0-6.247-6.246zm-54.618 80.88v-9.354h6.007v-3h-6.007v-10.36h6.007v-3h-6.007v-10.36h6.007v-3h-6.007V38.058h6.007v-3h-6.007v-10.36h6.007v-3h-6.007v-8.839a3.25 3.25 0 0 1 3.246-3.246h39.166v81.126H26.362a3.25 3.25 0 0 1-3.246-3.246zm57.864 0a3.25 3.25 0 0 1-3.246 3.246h-9.207V9.613h9.207a3.25 3.25 0 0 1 3.246 3.246v74.634z"/>
</svg>
